<?xml version="1.0" encoding="utf-8"?>
<!-- Generator: Adobe Illustrator 16.0.0, SVG Export Plug-In . SVG Version: 6.00 Build 0)  -->
<!DOCTYPE svg PUBLIC "-//W3C//DTD SVG 1.1//EN" "http://www.w3.org/Graphics/SVG/1.1/DTD/svg11.dtd">
<svg version="1.1" id="Layer_1" xmlns="http://www.w3.org/2000/svg" xmlns:xlink="http://www.w3.org/1999/xlink" x="0px" y="0px"
	 width="1014px" height="595.28px" viewBox="0 0 1014 595.28" enable-background="new 0 0 1014 595.28" xml:space="preserve">
<g>
	<path fill="none" stroke="#28265B" stroke-miterlimit="10" d="M-8.274,491.404c8-73,164.831-149.371,217-150
		c55.333-0.666,116.625,236.461,215.383,225.832c57.284-6.166,105.071-242.676,150.617-238.165
		c68.288,6.763,54.257,122.585,99.278,187.585c17.871,25.801,45,64,117,47c62.082-14.658,102-92,126-143
		c26-57.999,179.662-81.656,227.662-78.656"/>
	<path opacity="0.9843" fill="none" stroke="#28265B" stroke-miterlimit="10" d="M-8.523,489.331
		c8.463-71.636,162.954-144.154,214.754-144.098c7.949,0.02,15.99,4.888,24.3,13.06c49.535,48.715,106.85,216.492,190.945,207.484
		c9.233-0.988,18.201-7.891,27-18.697c45.732-56.164,84.997-220.82,123.505-216.819c34.018,3.605,49.205,32.897,61.014,68.41
		c6.949,20.898,13.043,43.27,21.263,65.661c3.356,9.144,7.146,18.199,11.444,26.783c3.993,7.974,8.509,15.679,13.74,22.761
		c4.71,6.338,9.943,13.409,16.234,20.057c19.54,20.647,48.405,42.746,103.126,30.063c61.02-14.143,100.828-90.835,124.154-141.988
		c26.349-57.781,176.807-82.486,223.952-79.426"/>
	<path opacity="0.9686" fill="none" stroke="#28265B" stroke-miterlimit="10" d="M-8.773,487.257
		c8.927-70.271,161.078-138.937,212.509-138.194c7.904,0.136,15.866,5.003,24.146,12.979
		c49.701,47.884,107.26,211.2,190.961,202.278c9.2-0.98,18.121-7.763,26.918-18.319c45.868-55.036,84.637-218.772,123.475-214.55
		c34.738,3.913,51.392,33.274,64.46,67.668c7.702,20.271,14.792,40.919,23.896,62.819c3.729,8.971,7.947,17.96,12.595,26.468
		c4.3,7.871,9.113,15.617,14.692,22.688c5.024,6.368,10.578,13.433,17.144,19.913c20.557,20.293,49.494,45.857,104.576,33.328
		c59.956-13.638,99.188-89.889,122.31-140.977c26.163-57.807,173.951-83.317,220.241-80.196"/>
	<path opacity="0.9529" fill="none" stroke="#28265B" stroke-miterlimit="10" d="M-9.022,485.184
		c9.39-68.906,159.202-133.719,210.263-132.291c7.858,0.251,15.744,5.116,23.991,12.898
		c49.872,47.056,107.669,205.907,190.978,197.071c9.167-0.972,18.04-7.634,26.837-17.941
		c46.007-53.908,84.289-216.831,123.444-212.28c35.469,4.121,53.585,33.661,67.906,66.926c8.459,19.647,16.545,38.571,26.53,59.979
		c4.104,8.798,8.748,17.72,13.746,26.152c4.604,7.768,9.728,15.55,15.644,22.617c5.35,6.392,11.218,13.454,18.053,19.768
		c21.585,19.938,50.58,48.971,106.026,36.595c58.889-13.145,97.546-88.943,120.465-139.967
		c25.977-57.83,171.095-84.146,216.531-80.966"/>
	<path opacity="0.9373" fill="none" stroke="#28265B" stroke-miterlimit="10" d="M-9.271,483.11
		c9.853-67.543,157.331-128.644,208.018-126.39c7.813,0.348,15.623,5.232,23.836,12.819
		c50.05,46.229,108.08,200.614,190.994,191.864c9.134-0.963,17.961-7.505,26.755-17.563
		c46.149-52.783,83.933-214.812,123.414-210.012c36.193,4.401,55.787,34.056,71.354,66.186c9.22,19.03,18.304,36.225,29.163,57.137
		c4.48,8.627,9.546,17.479,14.897,25.837c4.906,7.663,10.343,15.48,16.596,22.546c5.676,6.414,11.858,13.475,18.96,19.622
		c22.622,19.583,51.665,52.083,107.479,39.86c57.817-12.662,95.902-87.996,118.619-138.955
		c25.791-57.854,168.239-84.977,212.821-81.735"/>
	<path opacity="0.9216" fill="none" stroke="#28265B" stroke-miterlimit="10" d="M-9.521,481.037
		c10.316-66.179,155.459-123.454,205.772-120.486c7.768,0.458,15.503,5.347,23.682,12.738
		c50.236,45.402,108.489,195.322,191.01,186.656c9.101-0.953,17.882-7.375,26.673-17.186C483.91,491.099,521.194,329.971,561,335.02
		c36.917,4.682,57.998,34.455,74.8,65.443c9.986,18.417,20.067,33.879,31.797,54.295c4.858,8.457,10.342,17.236,16.049,25.521
		c5.207,7.56,10.96,15.412,17.547,22.475c6.004,6.438,12.503,13.494,19.87,19.478c23.669,19.223,52.746,55.195,108.928,43.126
		c56.743-12.189,94.26-87.05,116.774-137.943c25.605-57.88,165.384-85.808,209.111-82.506"/>
	<path opacity="0.9059" fill="none" stroke="#28265B" stroke-miterlimit="10" d="M-9.771,478.963
		c10.78-64.813,153.587-118.267,203.527-114.583c7.723,0.569,15.385,5.46,23.527,12.657
		c50.432,44.575,108.899,190.03,191.026,181.45c9.068-0.945,17.805-7.247,26.591-16.808
		c46.445-50.538,83.222-210.765,123.354-205.471c37.642,4.964,60.22,34.863,78.246,64.702
		c10.759,17.809,21.837,31.536,34.431,51.454c5.239,8.286,11.136,16.993,17.199,25.204c5.506,7.455,11.578,15.343,18.499,22.403
		c6.331,6.459,13.15,13.514,20.778,19.333c24.723,18.862,53.826,58.305,110.38,46.391c55.665-11.728,92.617-86.103,114.929-136.932
		c25.418-57.905,162.527-86.638,205.4-83.275"/>
	<path opacity="0.8902" fill="none" stroke="#28265B" stroke-miterlimit="10" d="M-10.02,476.891
		c11.243-63.45,151.716-113.08,201.281-108.682c7.678,0.682,15.268,5.573,23.373,12.577
		c50.633,43.751,109.309,184.737,191.043,176.243c9.035-0.937,17.728-7.118,26.509-16.43
		c46.601-49.416,82.865-208.738,123.324-203.201c38.364,5.249,62.453,35.274,81.692,63.96
		c11.539,17.204,23.611,29.193,37.064,48.613c5.622,8.116,11.928,16.752,18.351,24.889c5.802,7.35,12.196,15.273,19.45,22.332
		c6.66,6.481,13.802,13.529,21.688,19.187c25.785,18.497,54.903,61.417,111.83,49.658c54.585-11.275,90.974-85.158,113.083-135.921
		c25.231-57.931,159.673-87.469,201.691-84.046"/>
	<path opacity="0.8745" fill="none" stroke="#28265B" stroke-miterlimit="10" d="M-10.269,474.816
		c11.706-62.086,149.846-107.89,199.035-102.778c7.634,0.793,15.152,5.687,23.219,12.497
		c50.841,42.926,109.719,179.444,191.059,171.036c9.002-0.928,17.652-6.989,26.427-16.052
		c46.763-48.295,82.51-206.707,123.294-200.932c39.089,5.536,64.699,35.689,85.139,63.219
		c12.326,16.602,25.392,26.848,39.698,45.771c6.008,7.946,12.718,16.51,19.502,24.572c6.097,7.246,12.815,15.203,20.401,22.262
		c6.989,6.503,14.453,13.545,22.597,19.042c26.854,18.127,55.978,64.527,113.281,52.923c53.501-10.834,89.33-84.212,111.238-134.909
		c25.044-57.955,156.816-88.299,197.98-84.816"/>
	<path opacity="0.8588" fill="none" stroke="#28265B" stroke-miterlimit="10" d="M-10.519,472.743
		c12.169-60.722,147.977-102.699,196.79-96.876c7.589,0.905,15.038,5.798,23.064,12.417
		c51.055,42.103,110.128,174.152,191.075,165.829c8.969-0.92,17.578-6.86,26.346-15.674
		c46.929-47.174,82.153-204.676,123.264-198.662c39.812,5.824,66.959,36.105,88.585,62.478c13.121,16,27.177,24.502,42.332,42.93
		c6.396,7.776,13.505,16.267,20.653,24.257c6.389,7.142,13.436,15.132,21.353,22.189c7.319,6.524,15.107,13.56,23.506,18.897
		c27.929,17.752,57.05,67.636,114.731,56.188c52.414-10.402,87.687-83.267,109.393-133.898
		c24.857-57.98,153.962-89.129,194.271-85.585"/>
	<path opacity="0.8431" fill="none" stroke="#28265B" stroke-miterlimit="10" d="M-10.768,470.67
		c12.633-59.357,146.108-97.51,194.544-90.974c7.544,1.018,14.925,5.909,22.91,12.337c51.28,41.278,110.539,168.859,191.092,160.622
		c8.936-0.911,17.504-6.731,26.263-15.296c47.1-46.055,81.797-202.643,123.235-196.393c40.535,6.114,69.23,36.521,92.03,61.736
		c13.923,15.398,28.968,22.154,44.966,40.088c6.784,7.605,14.291,16.025,21.804,23.941c6.68,7.039,14.057,15.06,22.306,22.118
		c7.649,6.545,15.763,13.571,24.414,18.753c29.009,17.374,58.12,70.744,116.182,59.453c51.325-9.981,86.043-82.321,107.548-132.887
		c24.67-58.005,151.105-89.959,190.561-86.354"/>
	<path opacity="0.8275" fill="none" stroke="#28265B" stroke-miterlimit="10" d="M-11.018,468.596
		c13.096-57.992,144.24-92.312,192.299-85.069c7.5,1.13,14.814,6.02,22.755,12.256c51.511,40.453,110.948,163.566,191.108,155.415
		c8.903-0.903,17.432-6.602,26.182-14.918c47.277-44.934,81.44-200.606,123.203-194.123c41.26,6.405,71.518,36.933,95.478,60.994
		c14.734,14.797,30.762,19.806,47.599,37.247c7.176,7.434,15.077,15.784,22.956,23.626c6.969,6.936,14.678,14.989,23.257,22.047
		c7.98,6.565,16.42,13.582,25.323,18.607c30.094,16.988,59.188,73.853,117.633,62.719c50.232-9.569,84.398-81.376,105.702-131.875
		c24.481-58.031,148.25-90.789,186.851-87.125"/>
	<path opacity="0.8118" fill="none" stroke="#28265B" stroke-miterlimit="10" d="M-11.267,466.522
		c13.56-56.628,142.373-87.116,190.053-79.167c7.456,1.243,14.705,6.13,22.601,12.176c51.75,39.627,111.357,158.273,191.124,150.207
		c8.871-0.894,17.361-6.472,26.1-14.539c47.46-43.813,81.083-198.569,123.173-191.854c41.982,6.698,73.815,37.341,98.924,60.253
		c15.552,14.191,32.562,17.452,50.233,34.405c7.568,7.26,15.857,15.544,24.105,23.311c7.258,6.833,15.3,14.916,24.209,21.975
		c8.312,6.586,17.08,13.592,26.232,18.463c31.185,16.597,60.255,76.96,119.083,65.985c49.139-9.167,82.755-80.431,103.857-130.864
		c24.293-58.057,145.394-91.619,183.141-87.896"/>
	<path opacity="0.7961" fill="none" stroke="#28265B" stroke-miterlimit="10" d="M-11.516,464.449
		c14.022-55.264,140.505-81.918,187.807-73.265c7.412,1.355,14.598,6.238,22.447,12.095
		c52.001,38.798,111.768,152.982,191.141,145.001c8.837-0.885,17.291-6.341,26.018-14.162
		c47.646-42.695,80.726-196.529,123.143-189.583c42.705,6.993,76.127,37.742,102.371,59.512
		c16.375,13.583,34.363,15.098,52.866,31.563c7.962,7.086,16.639,15.305,25.257,22.995c7.543,6.73,15.922,14.843,25.16,21.903
		c8.644,6.606,17.74,13.599,27.141,18.317c32.278,16.203,61.319,80.066,120.535,69.251c48.041-8.774,81.109-79.484,102.012-129.853
		c24.104-58.083,142.538-92.45,179.43-88.665"/>
	<path opacity="0.7804" fill="none" stroke="#28265B" stroke-miterlimit="10" d="M-11.766,462.375
		c14.486-53.899,138.639-76.723,185.562-67.361c7.367,1.47,14.49,6.347,22.292,12.015
		c52.259,37.967,112.178,147.689,191.157,139.794c8.804-0.877,17.222-6.212,25.936-13.784
		c47.842-41.572,80.369-194.488,123.113-187.313c43.429,7.289,78.448,38.137,105.817,58.77c17.207,12.972,36.169,12.739,55.5,28.723
		c8.358,6.91,17.419,15.066,26.408,22.68c7.829,6.631,16.544,14.771,26.111,21.832c8.976,6.625,18.4,13.604,28.051,18.172
		c33.374,15.8,62.381,83.171,121.984,72.517c46.942-8.391,79.464-78.54,100.167-128.842c23.915-58.107,139.683-93.279,175.72-89.435
		"/>
	<path opacity="0.7647" fill="none" stroke="#28265B" stroke-miterlimit="10" d="M-12.015,460.302
		c14.949-52.534,136.773-71.521,183.316-61.459c7.323,1.583,14.385,6.453,22.138,11.935
		c52.523,37.138,112.587,142.396,191.173,134.587c8.771-0.868,17.154-6.081,25.854-13.406
		c48.041-40.452,80.012-192.445,123.083-185.044c44.151,7.587,80.777,38.523,109.264,58.028
		c18.043,12.354,37.977,10.378,58.134,25.881c8.755,6.733,18.197,14.828,27.56,22.364c8.113,6.53,17.165,14.696,27.062,21.761
		c9.308,6.643,19.062,13.607,28.959,18.027c34.474,15.396,63.44,86.273,123.436,75.782c45.842-8.017,77.819-77.596,98.322-127.831
		c23.726-58.133,136.827-94.11,172.01-90.204"/>
	<path opacity="0.749" fill="none" stroke="#28265B" stroke-miterlimit="10" d="M-12.265,458.229
		c15.413-51.171,134.907-66.318,181.071-55.557c7.279,1.697,14.282,6.56,21.983,11.854
		c52.799,36.302,112.997,137.104,191.189,129.38c8.738-0.859,17.088-5.95,25.772-13.029c48.247-39.33,79.654-190.4,123.054-182.772
		c44.873,7.887,83.114,38.9,112.709,57.286c18.885,11.731,39.786,8.014,60.768,23.039c9.152,6.555,18.976,14.591,28.711,22.048
		c8.396,6.432,17.788,14.624,28.014,21.69c9.641,6.662,19.725,13.609,29.868,17.882c35.575,14.983,64.499,89.375,124.887,79.048
		c44.736-7.651,76.173-76.649,96.476-126.818c23.536-58.16,133.973-94.941,168.301-90.976"/>
	<path opacity="0.7333" fill="none" stroke="#28265B" stroke-miterlimit="10" d="M-12.514,456.154
		c15.876-49.806,133.041-61.114,178.825-49.653c7.235,1.812,14.181,6.664,21.829,11.774
		c53.082,35.464,113.407,131.812,191.206,124.172c8.705-0.85,17.022-5.817,25.69-12.65c48.46-38.203,79.296-188.354,123.023-180.503
		c45.596,8.188,85.459,39.269,116.156,56.544c19.73,11.104,41.598,5.646,63.401,20.198c9.551,6.374,19.752,14.354,29.861,21.732
		c8.68,6.334,18.412,14.55,28.966,21.618c9.974,6.681,20.388,13.611,30.777,17.737c36.678,14.566,65.554,92.476,126.337,82.313
		c43.632-7.295,74.528-75.704,94.632-125.808c23.346-58.186,131.115-95.771,164.589-91.744"/>
	<path opacity="0.7176" fill="none" stroke="#28265B" stroke-miterlimit="10" d="M-12.763,454.081
		c16.339-48.441,131.174-55.908,176.579-43.751c7.191,1.926,14.08,6.769,21.674,11.694
		c53.375,34.622,113.817,126.519,191.222,118.966c8.673-0.842,16.959-5.686,25.609-12.273
		c48.68-37.076,78.938-186.309,122.993-178.233c46.318,8.489,87.807,39.628,119.603,55.803
		c20.579,10.469,43.411,3.273,66.035,17.356c9.949,6.193,20.528,14.12,31.013,21.417c8.961,6.236,19.035,14.475,29.917,21.547
		c10.306,6.698,21.05,13.61,31.687,17.593c37.78,14.146,66.608,95.573,127.788,85.578c42.522-6.947,72.881-74.759,92.785-124.796
		c23.156-58.212,128.261-96.601,160.88-92.515"/>
	<path opacity="0.702" fill="none" stroke="#28265B" stroke-miterlimit="10" d="M-13.013,452.008
		C3.79,404.93,116.295,401.31,161.322,414.16c7.146,2.039,13.98,6.87,21.52,11.613C236.519,459.547,297.068,547,374.08,539.531
		c8.64-0.833,16.896-5.552,25.526-11.895c48.907-35.946,78.58-184.26,122.963-175.964c47.039,8.793,90.157,39.977,123.049,55.062
		c21.429,9.828,45.225,0.899,68.668,14.515c10.349,6.011,21.305,13.886,32.165,21.101c9.243,6.141,19.658,14.4,30.868,21.477
		c10.639,6.716,21.714,13.608,32.596,17.447c38.887,13.718,67.659,98.671,129.238,88.845c41.413-6.608,71.236-73.814,90.941-123.785
		c22.966-58.238,125.403-97.432,157.169-93.284"/>
	<path opacity="0.6863" fill="none" stroke="#28265B" stroke-miterlimit="10" d="M-13.262,449.935
		c17.266-45.713,127.443-45.49,172.089-31.945c7.103,2.155,13.883,6.97,21.365,11.532
		c53.988,32.921,114.636,115.935,191.255,108.552c8.606-0.824,16.835-5.418,25.444-11.517
		c49.142-34.812,78.221-182.211,122.933-173.694c47.762,9.098,92.509,40.316,126.495,54.32c22.279,9.18,47.038-1.479,71.303,11.673
		c10.748,5.826,22.078,13.652,33.315,20.785c9.523,6.045,20.282,14.324,31.82,21.404c10.972,6.732,22.376,13.605,33.504,17.303
		c39.992,13.287,68.71,101.764,130.688,92.109c40.302-6.277,69.59-72.869,89.096-122.773
		c22.773-58.264,122.549-98.262,153.459-94.054"/>
	<path opacity="0.6706" fill="none" stroke="#28265B" stroke-miterlimit="10" d="M-13.511,447.861
		c17.729-44.35,125.575-40.277,169.843-26.043c7.059,2.27,13.788,7.07,21.211,11.453c54.306,32.062,115.046,110.641,191.271,103.344
		c8.574-0.816,16.775-5.283,25.363-11.139c49.382-33.674,77.862-180.16,122.902-171.425c48.482,9.403,94.863,40.648,129.941,53.579
		c23.132,8.526,48.853-3.859,73.936,8.831c11.148,5.641,22.853,13.421,34.467,20.47c9.804,5.949,20.905,14.249,32.772,21.333
		c11.306,6.749,23.04,13.602,34.413,17.157c41.099,12.85,69.758,104.857,132.14,95.376c39.188-5.956,67.942-71.925,87.251-121.763
		c22.583-58.29,119.692-99.092,149.748-94.824"/>
	<path opacity="0.6549" fill="none" stroke="#28265B" stroke-miterlimit="10" d="M-13.761,445.787
		c18.192-42.984,123.71-35.064,167.598-20.14c7.015,2.386,13.694,7.168,21.057,11.372c54.637,31.195,115.456,105.35,191.287,98.138
		c8.541-0.808,16.717-5.146,25.281-10.761c49.628-32.533,77.502-178.109,122.873-169.155c49.203,9.71,97.215,40.97,133.388,52.837
		c23.982,7.868,50.666-6.243,76.569,5.99c11.547,5.453,23.626,13.189,35.617,20.154c10.083,5.855,21.529,14.173,33.724,21.262
		c11.639,6.766,23.703,13.596,35.321,17.012c42.206,12.409,70.806,107.946,133.591,98.642
		c38.072-5.642,66.295-70.979,85.405-120.751c22.392-58.317,116.838-99.922,146.039-95.594"/>
	<path opacity="0.6392" fill="none" stroke="#28265B" stroke-miterlimit="10" d="M-14.01,443.714
		c18.655-41.62,121.843-29.85,165.352-14.237c6.971,2.501,13.601,7.265,20.902,11.292c54.976,30.319,115.866,100.057,191.304,92.931
		c8.508-0.799,16.66-5.01,25.199-10.383c49.885-31.384,77.143-176.057,122.842-166.886c49.924,10.02,99.566,41.285,136.835,52.096
		c24.833,7.204,52.479-8.63,79.203,3.148c11.947,5.266,24.398,12.961,36.769,19.839c10.362,5.762,22.152,14.096,34.675,21.189
		c11.973,6.782,24.367,13.591,36.231,16.868c43.312,11.965,71.849,111.031,135.041,101.906
		c36.955-5.337,64.647-70.035,83.56-119.739c22.199-58.344,113.981-100.752,142.329-96.363"/>
	<path opacity="0.6235" fill="none" stroke="#28265B" stroke-miterlimit="10" d="M-14.26,441.641
		c19.119-40.256,119.975-24.63,163.106-8.334c6.926,2.617,13.51,7.359,20.748,11.211c55.324,29.438,116.275,94.764,191.32,87.724
		c8.475-0.79,16.604-4.872,25.117-10.005c50.145-30.235,76.784-174.003,122.813-164.615
		c50.644,10.328,101.916,41.594,140.281,51.354c25.684,6.534,54.293-11.018,81.837,0.307c12.347,5.076,25.171,12.73,37.92,19.523
		c10.642,5.67,22.777,14.02,35.626,21.118c12.306,6.798,25.03,13.583,37.14,16.723c44.419,11.517,72.892,114.115,136.492,105.173
		c35.836-5.039,63.001-69.091,81.715-118.729c22.007-58.37,111.126-101.583,138.618-97.135"/>
	<path opacity="0.6078" fill="none" stroke="#28265B" stroke-miterlimit="10" d="M-14.509,439.567
		c19.582-38.892,118.109-19.416,160.86-2.433c6.883,2.734,13.419,7.454,20.594,11.132c55.68,28.545,116.685,89.471,191.336,82.517
		c8.442-0.781,16.549-4.733,25.036-9.627c50.414-29.072,76.423-171.948,122.783-162.346
		c51.364,10.639,104.263,41.896,143.727,50.611c26.532,5.86,56.106-13.407,84.47-2.534c12.746,4.886,25.945,12.503,39.071,19.208
		c10.921,5.578,23.401,13.943,36.579,21.047c12.639,6.813,25.693,13.575,38.048,16.578
		c45.524,11.065,73.933,117.193,137.942,108.438c34.717-4.749,61.353-68.146,79.87-117.718
		c21.813-58.396,108.271-102.412,134.908-97.903"/>
	<path opacity="0.5922" fill="none" stroke="#28265B" stroke-miterlimit="10" d="M-14.759,437.494
		c20.045-37.527,116.238-14.19,158.615,3.471c6.838,2.85,13.331,7.545,20.439,11.051c56.046,27.642,117.095,84.178,191.352,77.309
		c8.409-0.773,16.495-4.592,24.954-9.249c50.686-27.91,76.064-169.892,122.752-160.075c52.084,10.951,106.606,42.192,147.173,49.871
		c27.378,5.183,57.918-15.801,87.104-5.376c13.144,4.694,26.716,12.274,40.222,18.891c11.2,5.487,24.026,13.866,37.53,20.976
		c12.973,6.829,26.355,13.566,38.957,16.434c46.63,10.609,74.971,120.27,139.395,111.703c33.594-4.467,59.703-67.201,78.023-116.706
		c21.621-58.423,105.414-103.243,131.198-98.673"/>
	<path opacity="0.5765" fill="none" stroke="#28265B" stroke-miterlimit="10" d="M-15.008,435.42
		c20.509-36.163,114.371-8.97,156.369,9.374c6.794,2.968,13.243,7.634,20.285,10.971c56.418,26.729,117.505,78.886,191.368,72.102
		c8.376-0.764,16.443-4.449,24.872-8.871c50.967-26.736,75.703-167.835,122.722-157.806c52.804,11.264,108.947,42.483,150.62,49.129
		c28.224,4.501,59.729-18.194,89.738-8.217c13.542,4.503,27.489,12.047,41.373,18.575c11.479,5.397,24.648,13.789,38.481,20.904
		c13.306,6.844,27.02,13.557,39.866,16.288c47.735,10.15,76.008,123.339,140.845,114.969c32.472-4.192,58.055-66.256,76.179-115.694
		c21.427-58.449,102.559-104.073,127.487-99.443"/>
	<path opacity="0.5608" fill="none" stroke="#28265B" stroke-miterlimit="10" d="M-15.257,433.347
		c20.972-34.799,112.5-3.747,154.124,15.276c6.749,3.084,13.156,7.723,20.13,10.891c56.801,25.802,117.915,73.593,191.385,66.895
		c8.343-0.756,16.392-4.306,24.79-8.493c51.254-25.554,75.342-165.778,122.691-155.536c53.524,11.578,111.284,42.771,154.066,48.388
		c29.066,3.815,61.54-20.591,92.372-11.059c13.94,4.31,28.261,11.822,42.523,18.26c11.758,5.307,25.273,13.712,39.434,20.833
		c13.64,6.859,27.682,13.545,40.775,16.143c48.839,9.688,77.043,126.408,142.295,118.235c31.348-3.926,56.407-65.312,74.334-114.684
		c21.233-58.477,99.703-104.903,123.777-100.214"/>
	<path opacity="0.5451" fill="none" stroke="#28265B" stroke-miterlimit="10" d="M-15.507,431.273
		c21.436-33.435,110.63,1.479,151.879,21.179c6.704,3.202,13.07,7.809,19.976,10.81c57.193,24.856,118.324,68.301,191.401,61.688
		c8.31-0.747,16.341-4.161,24.708-8.115c51.547-24.361,74.981-163.722,122.662-153.267c54.241,11.894,113.617,43.055,157.513,47.646
		c29.906,3.128,63.349-22.988,95.004-13.9c14.339,4.116,29.033,11.597,43.676,17.944c12.037,5.218,25.897,13.634,40.385,20.761
		c13.974,6.874,28.344,13.534,41.684,15.998c49.943,9.223,78.077,129.467,143.746,121.501
		c30.223-3.666,54.758-64.367,72.489-113.672c21.04-58.503,96.847-105.734,120.067-100.983"/>
	<path opacity="0.5294" fill="none" stroke="#28265B" stroke-miterlimit="10" d="M-15.756,429.199
		c21.898-32.069,108.757,6.706,149.633,27.082c6.659,3.319,12.985,7.893,19.821,10.73c57.588,23.906,118.734,63.008,191.417,56.48
		c8.277-0.738,16.292-4.014,24.626-7.737c51.845-23.16,74.621-161.662,122.632-150.997c54.961,12.209,115.948,43.335,160.959,46.904
		c30.743,2.438,65.157-25.387,97.639-16.741c14.735,3.922,29.806,11.372,44.826,17.628c12.315,5.129,26.521,13.558,41.336,20.69
		c14.308,6.889,29.006,13.522,42.593,15.854c51.047,8.756,79.108,132.52,145.197,124.766c29.096-3.413,53.108-63.424,70.644-112.661
		c20.845-58.53,93.991-106.563,116.357-101.753"/>
	<path opacity="0.5137" fill="none" stroke="#28265B" stroke-miterlimit="10" d="M-16.006,427.126
		c22.362-30.705,106.884,11.938,147.388,32.985c6.613,3.437,12.902,7.974,19.667,10.648c57.995,22.93,119.144,57.716,191.434,51.274
		c8.244-0.73,16.242-3.865,24.544-7.359c52.149-21.947,74.26-159.604,122.603-148.728c55.679,12.526,118.274,43.612,164.405,46.163
		c31.58,1.746,66.965-27.787,100.271-19.583c15.134,3.728,30.578,11.148,45.979,17.312c12.594,5.041,27.145,13.479,42.287,20.619
		c14.642,6.904,29.669,13.51,43.502,15.708c52.147,8.286,80.138,135.565,146.648,128.031c27.967-3.168,51.458-62.479,68.797-111.649
		c20.649-58.558,91.137-107.395,112.648-102.522"/>
	<path opacity="0.498" fill="none" stroke="#28265B" stroke-miterlimit="10" d="M-16.255,425.053
		c22.825-29.342,105.012,17.163,145.142,38.887c6.569,3.557,12.819,8.055,19.513,10.569c58.406,21.938,119.554,52.423,191.45,46.067
		c8.211-0.722,16.194-3.716,24.462-6.982c52.456-20.725,73.898-157.542,122.572-146.457
		c56.396,12.844,120.597,43.888,167.852,45.422c32.413,1.052,68.771-30.188,102.905-22.425c15.53,3.532,31.351,10.926,47.13,16.997
		c12.873,4.953,27.769,13.4,43.238,20.547c14.977,6.918,30.33,13.497,44.411,15.563c53.249,7.812,81.166,138.606,148.099,131.298
		c26.838-2.931,49.809-61.534,66.953-110.639c20.455-58.584,88.28-108.225,108.937-103.293"/>
	<path opacity="0.4824" fill="none" stroke="#28265B" stroke-miterlimit="10" d="M-16.504,422.979
		c23.288-27.978,103.134,22.399,142.896,44.79c6.523,3.674,12.737,8.133,19.358,10.488c58.825,20.929,119.963,47.131,191.466,40.859
		c8.179-0.713,16.147-3.562,24.381-6.604c52.767-19.488,73.537-155.481,122.542-144.188c57.116,13.163,122.924,45.677,171.298,44.68
		c33.239-0.686,70.577-32.59,105.539-25.266c15.927,3.336,32.122,10.703,48.28,16.682c13.152,4.866,28.394,13.322,44.19,20.476
		c15.31,6.932,30.991,13.484,45.32,15.419c54.349,7.339,82.191,141.635,149.549,134.562c25.709-2.699,48.158-60.59,65.107-109.627
		c20.258-58.611,85.426-109.055,105.228-104.062"/>
	<path opacity="0.4667" fill="none" stroke="#28265B" stroke-miterlimit="10" d="M-16.754,420.905
		c23.751-26.612,101.259,27.63,140.65,50.693c6.478,3.793,12.655,8.209,19.204,10.408c59.249,19.898,120.373,41.838,191.482,35.652
		c8.146-0.704,16.099-3.408,24.299-6.226c53.081-18.237,73.174-153.42,122.512-141.918c57.832,13.482,125.266,45.834,174.744,43.938
		c34.052-1.305,72.382-34.993,108.173-28.107c16.322,3.141,32.896,10.482,49.431,16.366c13.432,4.779,29.02,13.244,45.144,20.404
		c15.643,6.946,31.651,13.47,46.229,15.273c55.448,6.859,83.216,144.652,151,137.828c24.578-2.475,46.507-59.646,63.262-108.615
		c20.063-58.639,82.569-109.886,101.517-104.833"/>
	<path opacity="0.451" fill="none" stroke="#28265B" stroke-miterlimit="10" d="M-17.003,418.832
		c24.215-25.248,99.381,32.864,138.405,56.596c6.432,3.911,12.574,8.283,19.049,10.328c59.678,18.849,120.783,36.545,191.499,30.445
		c8.112-0.695,16.052-3.252,24.216-5.848c53.397-16.978,72.813-151.358,122.482-139.648c58.55,13.804,127.546,44.702,178.19,43.197
		c34.902-1.037,74.193-37.44,110.807-30.949c16.722,2.924,33.667,10.261,50.582,16.051c13.71,4.693,29.642,13.165,46.095,20.333
		c15.977,6.96,32.312,13.455,47.138,15.128c56.547,6.382,84.238,147.658,152.45,141.094c23.446-2.257,44.856-58.7,61.417-107.604
		c19.866-58.666,79.713-110.716,97.807-105.603"/>
	<path opacity="0.4353" fill="none" stroke="#28265B" stroke-miterlimit="10" d="M-17.252,416.759
		c24.678-23.884,97.501,38.099,136.159,62.498c6.386,4.03,12.494,8.355,18.895,10.248c60.11,17.776,121.193,31.253,191.515,25.238
		c8.08-0.687,16.006-3.094,24.135-5.47c53.715-15.701,72.451-149.296,122.452-137.379c59.267,14.125,129.856,44.973,181.637,42.456
		c35.728-1.736,75.99-39.814,113.441-33.791c17.112,2.741,34.438,10.04,51.732,15.735c13.99,4.606,30.266,13.087,47.046,20.261
		c16.311,6.974,32.973,13.44,48.047,14.983c57.644,5.899,85.259,150.652,153.901,144.359c22.312-2.046,43.206-57.756,59.571-106.592
		c19.669-58.693,76.857-111.546,94.097-106.373"/>
	<path opacity="0.4196" fill="none" stroke="#28265B" stroke-miterlimit="10" d="M-17.502,414.686
		c25.142-22.521,95.625,43.332,133.914,68.4c6.339,4.15,12.412,8.425,18.74,10.168c60.546,16.679,121.603,25.96,191.532,20.031
		c8.047-0.678,15.959-2.934,24.053-5.092c54.033-14.408,72.088-147.233,122.421-135.109c59.983,14.448,132.164,45.24,185.083,41.715
		c36.551-2.436,77.787-42.188,116.074-36.633c17.506,2.559,35.212,9.82,52.885,15.42c14.27,4.521,30.89,13.008,47.997,20.189
		c16.645,6.987,33.633,13.425,48.956,14.838c58.74,5.418,88.404,165.662,155.352,147.626c20.528-5.53,41.554-56.812,57.727-105.582
		c19.473-58.72,74.002-112.376,90.387-107.142"/>
	<path opacity="0.4039" fill="none" stroke="#28265B" stroke-miterlimit="10" d="M-17.751,412.611
		c25.604-21.155,93.742,48.57,131.668,74.304c6.292,4.27,12.332,8.492,18.585,10.088c60.984,15.557,122.013,20.667,191.548,14.824
		c8.014-0.67,15.913-2.772,23.971-4.714c54.353-13.098,71.725-145.168,122.392-132.839c60.7,14.771,134.469,45.507,188.529,40.972
		c37.374-3.135,79.585-44.561,118.709-39.474c17.897,2.376,35.984,9.599,54.035,15.104c14.549,4.437,31.514,12.93,48.948,20.119
		c16.978,7.001,34.293,13.409,49.864,14.693c59.836,4.933,89.376,168.703,156.803,150.891c19.447-5.138,39.903-55.868,55.882-104.57
		c19.274-58.747,71.146-113.206,86.677-107.912"/>
	<path opacity="0.3882" fill="none" stroke="#28265B" stroke-miterlimit="10" d="M-18.001,410.538
		c26.068-19.791,91.858,53.809,129.423,80.206c6.246,4.39,12.25,8.558,18.431,10.007c61.423,14.406,122.422,15.375,191.564,9.618
		c7.98-0.661,15.865-2.607,23.889-4.336c54.669-11.777,71.362-143.104,122.361-130.569c61.416,15.095,136.771,45.774,191.976,40.23
		c38.193-3.836,81.392-47.02,121.342-42.315c18.296,2.154,36.758,9.38,55.187,14.788c14.828,4.352,32.138,12.852,49.9,20.048
		c17.312,7.015,34.953,13.394,50.773,14.548c60.93,4.446,90.33,171.681,158.254,154.156c18.366-4.738,38.251-54.924,54.036-103.559
		c19.076-58.774,68.29-114.036,82.966-108.683"/>
	<path opacity="0.3725" fill="none" stroke="#28265B" stroke-miterlimit="10" d="M-18.25,408.465
		c26.531-18.427,89.971,59.05,127.177,86.109c6.199,4.509,12.169,8.62,18.277,9.926c61.86,13.229,122.833,10.083,191.581,4.41
		c7.948-0.652,15.818-2.44,23.807-3.957c54.983-10.438,70.999-141.04,122.332-128.3c62.133,15.42,139.07,46.042,195.423,39.489
		c39.011-4.536,83.189-49.425,123.975-45.156c18.689,1.956,37.53,9.16,56.338,14.472c15.107,4.267,32.762,12.771,50.853,19.976
		c17.646,7.027,35.61,13.377,51.682,14.403c62.023,3.961,91.266,174.584,159.704,157.422c17.287-4.335,36.6-53.979,52.191-102.547
		c18.878-58.802,65.435-114.867,79.256-109.452"/>
	<path opacity="0.3569" fill="none" stroke="#28265B" stroke-miterlimit="10" d="M-18.5,406.392
		c26.995-17.062,88.087,64.287,124.931,92.011c6.152,4.629,12.087,8.682,18.123,9.847c62.296,12.023,123.242,4.79,191.597-0.796
		c7.915-0.645,15.77-2.273,23.726-3.58c55.294-9.082,70.635-138.975,122.3-126.03c62.847,15.746,141.369,46.309,198.87,38.748
		c39.829-5.237,84.988-51.833,126.608-47.999c19.083,1.758,38.304,8.943,57.489,14.157c15.388,4.182,33.386,12.691,51.804,19.904
		c17.979,7.041,36.271,13.361,52.591,14.259c63.115,3.472,92.182,177.398,161.155,160.688
		c16.209-3.928,34.946-53.035,50.346-101.536c18.679-58.829,62.579-115.697,75.546-110.222"/>
	<path opacity="0.3412" fill="none" stroke="#28265B" stroke-miterlimit="10" d="M-18.75,404.317
		c27.458-15.697,86.197,69.531,122.686,97.915c6.104,4.748,12.006,8.74,17.968,9.766c62.729,10.792,123.652-0.502,191.613-6.004
		c7.882-0.635,15.72-2.103,23.644-3.201c55.601-7.711,70.271-136.909,122.271-123.761c63.563,16.073,143.662,46.575,202.315,38.006
		c40.646-5.938,86.787-54.239,129.242-50.839c19.476,1.56,39.077,8.722,58.641,13.84c15.667,4.099,34.023,12.577,52.755,19.834
		c18.326,7.019,36.93,13.318,53.5,14.113c64.212,2.883,93.07,180.084,162.605,163.953c15.134-3.511,33.294-52.091,48.501-100.525
		c18.479-58.856,59.724-116.527,71.836-110.991"/>
	<path opacity="0.3255" fill="none" stroke="#28265B" stroke-miterlimit="10" d="M-18.999,402.244
		c27.921-14.334,84.31,74.771,120.441,103.817c6.055,4.868,11.921,8.797,17.813,9.686c63.157,9.524,124.061-5.796,191.629-11.211
		c7.849-0.626,15.67-1.931,23.562-2.824c55.901-6.328,69.908-134.843,122.241-121.49c64.278,16.399,145.956,46.842,205.762,37.265
		c41.459-6.64,88.584-56.646,131.876-53.681c19.867,1.36,39.85,8.505,59.791,13.524c15.947,4.014,34.646,12.502,53.707,19.762
		c18.658,7.035,37.588,13.317,54.409,13.969c65.299,2.451,93.933,182.623,164.057,167.219c14.058-3.088,31.641-51.146,46.655-99.513
		c18.28-58.885,56.867-117.358,68.125-111.763"/>
	<path opacity="0.3098" fill="none" stroke="#28265B" stroke-miterlimit="10" d="M-19.249,400.171
		c28.385-12.97,82.42,80.01,118.195,109.72c6.007,4.989,11.837,8.853,17.659,9.605c63.58,8.226,124.471-11.088,191.645-16.418
		c7.816-0.618,15.618-1.758,23.48-2.446c56.195-4.925,69.52-132.681,122.21-119.22c64.963,16.844,148.233,47.025,209.208,36.522
		c42.263-7.397,90.38-59.054,134.51-56.522c20.26,1.162,40.623,8.287,60.942,13.209c16.228,3.931,35.269,12.426,54.658,19.69
		c18.99,7.052,38.245,13.315,55.318,13.823c66.387,2.021,94.765,184.978,165.507,170.484c12.981-2.659,29.986-50.201,44.81-98.502
		c18.079-58.911,54.013-118.188,64.416-112.531"/>
	<path opacity="0.2941" fill="none" stroke="#28265B" stroke-miterlimit="10" d="M-19.498,398.098
		C9.35,386.492,61.03,483.349,96.452,513.72c5.959,5.109,11.752,8.905,17.505,9.525c63.994,6.895,124.88-16.381,191.662-21.625
		c7.783-0.609,15.565-1.582,23.398-2.068c56.48-3.511,69.16-130.631,122.181-116.951c65.683,17.153,150.533,47.355,212.654,35.782
		c43.083-8.056,92.176-61.462,137.144-59.364c20.652,0.964,41.396,8.069,62.093,12.894c16.509,3.848,35.892,12.35,55.61,19.619
		c19.322,7.068,38.903,13.313,56.228,13.679c67.474,1.588,95.565,187.102,166.957,173.749c11.906-2.227,28.24-49.285,42.965-97.49
		c17.766-58.974,51.157-119.019,60.706-113.302"/>
	<path opacity="0.2784" fill="none" stroke="#28265B" stroke-miterlimit="10" d="M-19.747,396.023
		c29.311-10.24,78.633,90.494,113.704,121.525c5.911,5.229,11.666,8.957,17.35,9.445c64.398,5.53,125.291-21.673,191.678-26.832
		c7.75-0.601,15.511-1.404,23.316-1.69c56.757-2.077,68.799-128.581,122.15-114.682c66.401,17.461,152.833,47.685,216.102,35.04
		c43.901-8.712,93.971-63.87,139.776-62.205c21.044,0.765,42.171,7.854,63.244,12.578c16.789,3.764,36.514,12.273,56.562,19.547
		c19.655,7.086,39.562,13.275,57.137,13.534c68.563,1.011,96.337,188.928,168.408,177.016c10.83-1.79,26.601-48.337,41.119-96.479
		c17.583-58.995,48.302-119.849,56.995-114.071"/>
	<path opacity="0.2627" fill="none" stroke="#28265B" stroke-miterlimit="10" d="M-19.997,393.95
		c29.774-8.876,76.738,95.735,111.458,127.428c5.862,5.351,11.578,9.007,17.196,9.365c64.791,4.133,125.701-26.966,191.695-32.039
		c7.717-0.593,15.455-1.43,23.234-1.312c57.021,0.858,68.44-126.531,122.121-112.411c67.122,17.769,155.134,48.014,219.548,34.298
		c44.721-9.37,95.765-66.278,142.41-65.047c21.436,0.565,42.944,7.637,64.396,12.263c17.069,3.681,37.136,12.197,57.514,19.476
		c19.986,7.102,40.218,13.257,58.044,13.389c69.652,0.516,97.078,190.313,169.859,180.281c9.751-1.344,24.962-47.388,39.274-95.468
		c17.399-59.018,45.445-120.679,53.285-114.842"/>
	<path opacity="0.2471" fill="none" stroke="#28265B" stroke-miterlimit="10" d="M-20.246,391.877
		c30.237-7.512,74.838,100.98,109.212,133.331c5.812,5.47,11.488,9.054,17.042,9.284c65.17,2.701,126.111-32.259,191.711-37.246
		c7.684-0.584,15.397-1.047,23.152-0.935c57.281,0.83,68.08-124.482,122.09-110.142c67.841,18.076,157.396,48.176,222.994,33.557
		c45.516-10.144,97.559-68.688,145.044-67.889c21.827,0.367,43.718,7.421,65.547,11.947c17.35,3.598,37.758,12.122,58.465,19.404
		c20.318,7.118,40.875,13.098,58.953,13.243c70.735,0.569,97.809,191.128,171.311,183.548c8.668-0.894,23.322-46.439,37.43-94.458
		c17.216-59.038,42.589-121.509,49.574-115.611"/>
	<path opacity="0.2314" fill="none" stroke="#28265B" stroke-miterlimit="10" d="M-20.495,389.803
		c30.701-6.147,72.892,106.273,106.967,139.234c5.754,5.6,11.396,9.1,16.887,9.203c65.533,1.231,126.52-37.551,191.727-42.453
		c7.651-0.574,15.338-0.866,23.071-0.557c57.524,2.3,67.72-122.432,122.06-107.871c68.561,18.384,159.68,48.444,226.44,32.815
		c46.323-10.845,99.366-71.954,147.678-70.73c22.212,0.562,44.491,7.204,66.697,11.632c17.631,3.516,38.381,12.046,59.417,19.332
		c20.651,7.136,41.532,13.221,59.862,13.1c71.824-0.477,98.568,191.082,172.761,186.812c7.58-0.437,21.684-45.489,35.584-93.445
		c17.033-59.06,39.734-122.339,45.864-116.381"/>
	<path opacity="0.2157" fill="none" stroke="#28265B" stroke-miterlimit="10" d="M-20.745,387.729
		c31.164-4.783,71.016,111.49,104.721,145.137c5.708,5.716,11.303,9.231,16.732,9.124c65.866-1.305,126.93-42.844,191.744-47.661
		c7.618-0.565,15.276-0.685,22.989-0.179c57.757,3.778,67.359-120.382,122.03-105.602c69.28,18.692,161.963,48.712,229.887,32.073
		c47.131-11.545,101.153-74.433,150.312-73.571c22.604,0.396,45.266,6.987,67.85,11.315c17.911,3.433,39.002,11.972,60.367,19.262
		c20.982,7.151,42.188,13.202,60.771,12.954c72.908-0.975,99.54,186.88,174.212,190.078c6.475,0.277,20.044-44.54,33.739-92.435
		c16.85-59.082,36.877-123.17,42.154-117.15"/>
	<path opacity="0.2" fill="none" stroke="#28265B" stroke-miterlimit="10" d="M-20.994,385.656c37-4,82.054,161.082,119.054,160.082
		c74-2,141.667-59.668,214.667-52.668c58,5,67-118.332,122-103.332c70,19,164.335,49.332,233.333,31.332
		c48-12,102.945-75.413,152.945-76.413c23,0,46,7,69,11c36,7,85,32.999,123,31.999c74-1,100.662,188.344,175.662,193.344
		c12,1,62.338-220.343,70.338-209.344"/>
	<path opacity="0.2" fill="none" stroke="#28265B" stroke-miterlimit="10" d="M2.672,388.304
		c36.298-3.915,80.493,157.938,116.792,156.964c72.576-1.953,138.91-58.139,210.539-51.611
		c56.859,5.182,65.728-115.999,119.671-101.286c68.657,18.637,161.081,48.037,228.845,30.746
		c47.019-11.997,100.961-75.386,150.008-74.891c22.557,0.228,45.155,6.646,67.672,10.794c35.375,6.518,83.356,32.126,120.632,31.391
		c72.572-1.432,98.795,184.041,172.307,189.599c11.795,0.892,61.161-215.995,69.024-205.195"/>
	<path opacity="0.2" fill="none" stroke="#28265B" stroke-miterlimit="10" d="M26.339,390.95
		c35.596-3.829,78.932,154.794,114.53,153.847c71.151-1.905,136.187-56.96,206.411-50.555
		c55.743,5.084,64.457-113.666,117.341-99.24c67.313,18.273,157.919,47.096,224.357,30.161c46.1-11.75,98.984-73.865,147.071-73.37
		c22.114,0.228,44.269,6.52,66.344,10.589c34.684,6.394,81.721,31.495,118.264,30.782c71.152-1.389,96.883,180.363,168.951,185.854
		c11.584,0.883,59.982-211.646,67.711-201.048"/>
	<path opacity="0.2" fill="none" stroke="#28265B" stroke-miterlimit="10" d="M50.006,393.598
		c34.895-3.743,77.371,151.649,112.268,150.729c69.728-1.858,133.464-55.78,202.282-49.498
		c54.627,4.986,63.185-111.333,115.013-97.195c65.97,17.91,154.757,46.153,219.869,29.575
		c45.181-11.503,97.007-72.338,144.135-71.848c21.671,0.226,43.381,6.393,65.015,10.383c33.99,6.27,80.084,30.865,115.896,30.174
		c69.732-1.346,94.97,176.683,165.595,182.108c11.371,0.874,58.805-207.298,66.396-196.899"/>
	<path opacity="0.2" fill="none" stroke="#28265B" stroke-miterlimit="10" d="M73.672,396.244
		c34.193-3.657,75.81,148.505,110.006,147.612c68.303-1.812,130.74-54.602,198.154-48.441c53.512,4.891,61.913-109,112.684-95.149
		c64.626,17.547,151.594,45.212,215.38,28.99c44.263-11.256,95.032-70.816,141.198-70.327c21.228,0.225,42.496,6.267,63.687,10.178
		c33.299,6.146,78.446,30.235,113.528,29.565c68.312-1.304,93.059,173.002,162.239,178.363
		c11.159,0.865,57.628-202.949,65.083-192.752"/>
	<path opacity="0.2" fill="none" stroke="#28265B" stroke-miterlimit="10" d="M97.339,398.892
		c33.491-3.572,74.249,145.36,107.745,144.495c66.878-1.765,128.016-53.423,194.025-47.385
		c52.396,4.793,60.641-106.668,110.354-93.105c63.283,17.184,148.434,44.271,210.894,28.406
		c43.343-11.009,93.055-69.29,138.261-68.806c20.785,0.223,41.609,6.141,62.358,9.972c32.606,6.021,76.81,29.605,111.161,28.957
		c66.892-1.262,91.146,169.321,158.883,174.618c10.947,0.856,56.45-198.602,63.769-188.604"/>
	<path opacity="0.2" fill="none" stroke="#28265B" stroke-miterlimit="10" d="M121.006,401.539
		c32.789-3.487,72.688,142.216,105.483,141.377c65.454-1.718,125.292-52.244,189.897-46.328
		c51.28,4.695,59.37-104.334,108.024-91.06c61.94,16.82,145.271,43.329,206.405,27.821c42.424-10.762,91.079-67.766,135.324-67.285
		c20.343,0.221,40.723,6.015,61.03,9.767c31.913,5.896,75.172,28.976,108.793,28.35c65.472-1.219,89.234,165.644,155.526,170.872
		c10.736,0.847,55.274-194.253,62.456-184.455"/>
	<path opacity="0.2" fill="none" stroke="#28265B" stroke-miterlimit="10" d="M144.672,404.186
		c32.087-3.4,71.127,139.072,103.221,138.26c64.029-1.67,122.57-51.065,185.769-45.271c50.165,4.599,58.098-102.001,105.695-89.014
		c60.598,16.457,142.109,42.387,201.918,27.235c41.504-10.515,89.102-66.239,132.387-65.763c19.9,0.219,39.837,5.888,59.702,9.561
		c31.222,5.772,73.535,28.346,106.425,27.741c64.053-1.178,87.324,161.964,152.171,167.127
		c10.524,0.838,54.097-189.904,61.142-180.308"/>
	<path opacity="0.2" fill="none" stroke="#28265B" stroke-miterlimit="10" d="M168.339,406.833
		c31.386-3.315,69.566,135.928,100.959,135.143c62.605-1.624,119.846-49.887,181.641-44.216
		c49.048,4.501,56.826-99.668,103.367-86.968c59.253,16.094,138.946,41.445,197.43,26.65
		c40.585-10.267,87.125-64.713,129.449-64.241c19.457,0.217,38.951,5.761,58.374,9.354c30.529,5.647,71.897,27.716,104.057,27.133
		c62.633-1.135,85.412,158.284,148.815,163.383c10.312,0.829,52.919-185.556,59.828-176.159"/>
	<path opacity="0.2" fill="none" stroke="#28265B" stroke-miterlimit="10" d="M192.005,409.479
		c30.684-3.229,68.005,132.784,98.698,132.025c61.181-1.577,117.123-48.707,177.513-43.158
		c47.933,4.404,55.554-97.336,101.038-84.923c57.909,15.73,135.783,40.503,192.94,26.064c39.667-10.02,85.149-63.19,126.513-62.72
		c19.015,0.217,38.065,5.635,57.046,9.148c29.837,5.523,70.262,27.085,101.689,26.524c61.213-1.093,83.5,154.607,145.46,159.638
		c10.1,0.82,51.74-181.208,58.514-172.011"/>
	<path opacity="0.2" fill="none" stroke="#28265B" stroke-miterlimit="10" d="M215.672,412.127
		c29.982-3.145,66.444,129.639,96.436,128.907c59.757-1.529,114.399-47.528,173.385-42.102
		c46.816,4.308,54.283-95.003,98.709-82.877c56.566,15.367,132.622,39.561,188.453,25.479
		c38.747-9.772,83.172-61.665,123.576-61.198c18.571,0.215,37.178,5.508,55.717,8.942c29.146,5.398,68.624,26.456,99.322,25.917
		c59.791-1.05,81.587,150.927,142.103,155.892c9.889,0.812,50.563-176.859,57.2-167.863"/>
	<path opacity="0.2" fill="none" stroke="#28265B" stroke-miterlimit="10" d="M239.339,414.773
		c29.28-3.059,64.883,126.495,94.174,125.791c58.332-1.483,111.676-46.351,169.256-41.046c45.701,4.21,53.011-92.669,96.38-80.831
		c55.223,15.004,129.46,38.618,183.965,24.894c37.828-9.525,81.196-60.143,120.64-59.677c18.129,0.214,36.292,5.383,54.389,8.737
		c28.452,5.274,66.987,25.825,96.954,25.309c58.372-1.007,79.676,147.247,138.747,152.146
		c9.676,0.803,49.386-172.511,55.887-163.715"/>
	<path opacity="0.2" fill="none" stroke="#28265B" stroke-miterlimit="10" d="M263.005,417.421
		c28.578-2.974,63.322,123.351,91.912,122.673c56.908-1.436,108.953-45.17,165.128-39.988c44.586,4.112,51.74-90.337,94.051-78.786
		c53.88,14.64,126.299,37.677,179.477,24.309c36.909-9.278,79.22-58.617,117.703-58.155c17.687,0.212,35.406,5.256,53.061,8.531
		c27.76,5.15,65.351,25.195,94.586,24.7c56.952-0.964,77.765,143.571,135.392,148.401c9.464,0.793,48.208-168.163,54.573-159.567"/>
	<path opacity="0.2" fill="none" stroke="#28265B" stroke-miterlimit="10" d="M286.672,420.068
		c27.877-2.889,61.761,120.206,89.65,119.555c55.484-1.389,106.229-43.991,161-38.932c43.47,4.016,50.467-88.004,91.721-76.74
		c52.537,14.276,123.136,36.733,174.989,23.723c35.99-9.03,77.243-57.09,114.766-56.633c17.244,0.21,34.521,5.129,51.731,8.325
		c27.069,5.026,63.714,24.565,92.219,24.092c55.532-0.923,75.853,139.893,132.036,144.656
		c9.252,0.784,47.031-163.814,53.259-155.419"/>
	<path opacity="0.2" fill="none" stroke="#28265B" stroke-miterlimit="10" d="M310.339,422.715
		c27.175-2.803,60.201,117.062,87.388,116.438c54.06-1.343,103.506-42.813,156.872-37.876c42.354,3.918,49.196-85.67,89.393-74.695
		c51.192,13.914,119.974,35.793,170.501,23.139c35.07-8.783,75.266-55.568,111.828-55.112c16.801,0.21,33.634,5.004,50.404,8.12
		c26.375,4.901,62.076,23.936,89.851,23.483c54.111-0.88,73.94,136.214,128.68,140.911c9.04,0.775,45.854-159.466,51.945-151.271"/>
	<path opacity="0.2" fill="none" stroke="#28265B" stroke-miterlimit="10" d="M334.005,425.362
		c26.473-2.718,58.64,113.918,85.127,113.32c52.635-1.295,100.782-41.635,152.743-36.819c41.238,3.821,47.925-83.337,87.063-72.649
		c49.85,13.551,116.812,34.853,166.013,22.554c34.152-8.537,73.29-54.042,108.893-53.591c16.357,0.207,32.746,4.877,49.074,7.914
		c25.684,4.778,60.44,23.305,87.483,22.875c52.693-0.838,72.029,132.535,125.324,137.166c8.829,0.767,44.677-155.118,50.632-147.122
		"/>
	<path opacity="0.2" fill="none" stroke="#28265B" stroke-miterlimit="10" d="M357.672,428.009
		c25.771-2.632,57.078,110.774,82.864,110.203c51.211-1.247,98.06-40.455,148.616-35.762c40.121,3.725,46.652-81.005,84.733-70.604
		c48.507,13.188,113.65,33.909,161.525,21.968c33.232-8.289,71.312-52.521,105.954-52.069c15.916,0.207,31.86,4.751,47.747,7.709
		c24.992,4.653,58.804,22.675,85.116,22.267c51.272-0.796,70.117,128.857,121.968,133.421c8.616,0.759,43.498-150.77,49.317-142.975
		"/>
	<path opacity="0.2" fill="none" stroke="#28265B" stroke-miterlimit="10" d="M381.339,430.656
		c25.069-2.546,55.517,107.63,80.603,107.086c49.786-1.201,95.335-39.276,144.487-34.706c39.006,3.627,45.38-78.672,82.405-68.559
		c47.162,12.824,110.487,32.968,157.036,21.383c32.314-8.042,69.338-50.991,103.019-50.548c15.473,0.203,30.975,4.623,46.418,7.502
		c24.3,4.529,57.167,22.047,82.748,21.66c49.853-0.754,68.206,125.179,118.612,129.674c8.405,0.75,42.321-146.42,48.003-138.826"/>
	<path opacity="0.2" fill="none" stroke="#28265B" stroke-miterlimit="10" d="M405.005,433.304
		c24.367-2.461,53.957,104.485,78.341,103.968c48.362-1.154,92.611-38.098,140.359-33.649c37.89,3.53,44.109-76.339,80.076-66.513
		c45.819,12.46,107.324,32.025,152.549,20.797c31.396-7.795,67.359-49.467,100.081-49.025c15.029,0.203,30.088,4.497,45.09,7.297
		c23.607,4.405,55.529,21.415,80.38,21.051c48.433-0.71,66.294,121.505,115.256,125.93c8.193,0.74,41.145-142.073,46.69-134.679"/>
	<path opacity="0.2" fill="none" stroke="#28265B" stroke-miterlimit="10" d="M428.672,435.95
		c23.665-2.375,52.396,101.341,76.079,100.851c46.938-1.106,89.888-36.917,136.231-32.592c36.774,3.433,42.837-74.006,77.746-64.468
		c44.477,12.097,104.163,31.084,148.061,20.212c30.477-7.548,65.384-47.943,97.145-47.505c14.587,0.201,29.202,4.371,43.762,7.091
		c22.915,4.28,53.892,20.786,78.012,20.443c47.013-0.668,64.384,117.828,111.9,122.185c7.982,0.731,39.967-137.725,45.377-130.53"/>
	<path opacity="0.2" fill="none" stroke="#28265B" stroke-miterlimit="10" d="M452.338,438.598
		c22.964-2.289,50.835,98.196,73.817,97.733c45.514-1.061,87.165-35.74,132.104-31.536c35.658,3.336,41.565-71.673,75.417-62.422
		c43.133,11.734,101.001,30.141,143.573,19.626c29.557-7.3,63.407-46.421,94.207-45.983c14.145,0.201,28.315,4.246,42.435,6.887
		c22.223,4.156,52.254,20.154,75.644,19.833c45.592-0.626,62.472,114.155,108.544,118.44c7.77,0.723,38.789-133.377,44.062-126.382"
		/>
	<path opacity="0.2" fill="none" stroke="#28265B" stroke-miterlimit="10" d="M476.005,441.244
		c22.262-2.203,49.273,95.053,71.556,94.616c44.089-1.013,84.442-34.561,127.975-30.479c34.543,3.238,40.294-69.34,73.088-60.377
		c41.79,11.371,97.84,29.2,139.086,19.042c28.638-7.053,61.43-44.895,91.27-44.462c13.702,0.198,27.43,4.119,41.105,6.68
		c21.53,4.031,50.618,19.525,73.276,19.227c44.173-0.583,60.561,110.475,105.188,114.693c7.559,0.715,37.611-129.027,42.749-122.233
		"/>
	<path opacity="0.2" fill="none" stroke="#28265B" stroke-miterlimit="10" d="M499.672,443.892
		c21.561-2.118,47.713,91.908,69.293,91.498c42.665-0.966,81.719-33.383,123.848-29.423c33.427,3.142,39.021-67.006,70.759-58.33
		c40.446,11.007,94.677,28.257,134.597,18.455c27.719-6.806,59.454-43.368,88.334-42.939c13.259,0.196,26.543,3.993,39.776,6.475
		c20.838,3.907,48.981,18.895,70.908,18.617c42.753-0.541,58.649,106.802,101.833,110.949c7.347,0.706,36.435-124.68,41.436-118.086
		"/>
	<path opacity="0.2" fill="none" stroke="#28265B" stroke-miterlimit="10" d="M523.338,446.539
		c20.859-2.033,46.152,88.764,67.032,88.381c41.24-0.919,78.995-32.203,119.719-28.366c32.31,3.044,37.75-64.674,68.43-56.286
		c39.103,10.645,91.516,27.316,130.108,17.871c26.8-6.56,57.478-41.847,85.397-41.419c12.816,0.196,25.657,3.866,38.448,6.269
		c20.146,3.783,47.344,18.266,68.541,18.01c41.333-0.499,56.737,103.124,98.477,107.203c7.135,0.697,35.257-120.33,40.121-113.938"
		/>
	<path opacity="0.2" fill="none" stroke="#28265B" stroke-miterlimit="10" d="M547.005,449.186
		c20.157-1.947,44.592,85.663,64.771,85.264c39.818-0.788,76.271-31.023,115.59-27.31c31.195,2.946,36.479-62.341,66.101-54.24
		c37.761,10.28,88.354,26.375,125.621,17.286c25.88-6.312,55.501-40.32,82.46-39.897c12.374,0.194,24.771,3.739,37.12,6.062
		c19.454,3.659,45.708,17.635,66.173,17.401c39.913-0.456,54.826,99.452,95.121,103.459c6.923,0.688,34.08-115.983,38.808-109.79"/>
	<path opacity="0.2" fill="none" stroke="#28265B" stroke-miterlimit="10" d="M570.672,451.833
		c19.455-1.862,43.03,82.52,62.508,82.146c38.394-0.737,73.548-29.846,111.463-26.253c30.078,2.85,35.206-60.008,63.771-52.194
		c36.417,9.918,85.191,25.434,121.134,16.701c24.961-6.064,53.524-38.8,79.522-38.377c11.931,0.193,23.884,3.614,35.792,5.857
		c18.761,3.535,44.07,17.005,63.805,16.793c38.493-0.413,52.915,95.777,91.766,99.713c6.712,0.68,32.902-111.633,37.494-105.641"/>
	<path opacity="0.2" fill="none" stroke="#28265B" stroke-miterlimit="10" d="M594.338,454.479
		c18.753-1.775,41.47,79.377,60.247,79.028c36.97-0.687,70.824-28.665,107.333-25.195c28.964,2.753,33.936-57.675,61.443-50.149
		c35.072,9.554,82.028,24.49,116.645,16.114c24.043-5.817,51.548-37.269,76.586-36.854c11.488,0.19,22.999,3.487,34.464,5.651
		c18.069,3.41,42.433,16.375,61.437,16.185c37.073-0.372,51.004,92.107,88.41,95.969c6.499,0.671,31.725-107.287,36.18-101.494"/>
	<path opacity="0.2" fill="none" stroke="#28265B" stroke-miterlimit="10" d="M618.005,457.127
		c18.051-1.69,39.909,76.235,57.984,75.911c35.545-0.637,68.102-27.487,103.206-24.14c27.847,2.655,32.663-55.342,59.113-48.104
		c33.729,9.19,78.866,23.548,112.157,15.529c23.124-5.569,49.571-35.747,73.648-35.333c11.046,0.189,22.112,3.361,33.136,5.446
		c17.377,3.287,40.796,15.744,59.069,15.576c35.653-0.328,49.093,88.436,85.054,92.224c6.288,0.662,30.547-102.938,34.866-97.346"/>
	<path opacity="0.2" fill="none" stroke="#28265B" stroke-miterlimit="10" d="M641.672,459.773
		c17.349-1.604,38.348,73.093,55.723,72.794c34.121-0.586,65.377-26.309,99.077-23.083c26.731,2.559,31.392-53.009,56.784-46.058
		c32.387,8.827,75.705,22.606,107.67,14.944c22.204-5.322,47.595-34.222,70.711-33.812c10.603,0.188,21.227,3.234,31.808,5.239
		c16.685,3.162,39.16,15.115,56.702,14.969c34.232-0.286,47.181,84.763,81.697,88.478c6.076,0.654,29.369-98.589,33.553-93.196"/>
	<path opacity="0.2" fill="none" stroke="#28265B" stroke-miterlimit="10" d="M665.338,462.421
		c16.647-1.52,36.787,69.95,53.461,69.677c32.697-0.536,62.655-25.13,94.949-22.027c25.616,2.461,30.12-50.676,54.455-44.012
		c31.043,8.464,72.543,21.664,103.182,14.358c21.286-5.076,45.618-32.694,67.775-32.289c10.159,0.186,20.339,3.108,30.479,5.034
		c15.992,3.038,37.522,14.484,54.334,14.359c32.812-0.244,45.271,81.093,78.342,84.732c5.865,0.646,28.191-94.24,32.238-89.049"/>
	<path opacity="0.2" fill="none" stroke="#28265B" stroke-miterlimit="10" d="M689.005,465.068
		c15.945-1.435,35.226,66.807,51.198,66.559c31.272-0.486,59.932-23.95,90.822-20.97c24.5,2.364,28.848-48.343,52.125-41.968
		c29.7,8.102,69.38,20.724,98.693,13.774c20.367-4.828,43.642-31.173,64.838-30.769c9.718,0.186,19.453,2.982,29.151,4.829
		c15.3,2.913,35.886,13.635,51.966,13.751c31.393,0.227,43.359,77.426,74.986,80.988c5.654,0.637,27.014-89.893,30.925-84.901"/>
	<path opacity="0.2" fill="none" stroke="#28265B" stroke-miterlimit="10" d="M712.671,467.715
		c15.244-1.349,33.666,63.664,48.938,63.441c29.849-0.436,57.208-22.771,86.693-19.913c23.384,2.267,27.577-46.01,49.797-39.922
		c28.356,7.738,66.218,19.782,94.205,13.189c19.447-4.581,41.665-29.647,61.901-29.247c9.274,0.184,18.567,2.856,27.822,4.623
		c14.607,2.789,34.248,13.013,49.598,13.143c29.973,0.253,41.449,73.757,71.631,77.242c5.442,0.629,25.836-85.544,29.611-80.752"/>
	<path opacity="0.2" fill="none" stroke="#28265B" stroke-miterlimit="10" d="M736.338,470.362
		c14.543-1.263,32.104,60.522,46.676,60.324c28.423-0.386,54.483-21.594,82.564-18.857c22.269,2.17,26.305-43.677,47.468-37.876
		c27.013,7.375,63.057,18.84,89.718,12.604c18.527-4.334,39.688-28.125,58.964-27.726c8.832,0.184,17.681,2.729,26.494,4.417
		c13.915,2.664,32.612,12.394,47.229,12.535c28.553,0.277,39.539,70.089,68.275,73.497c5.23,0.62,24.659-81.195,28.297-76.604"/>
	<path opacity="0.2" fill="none" stroke="#28265B" stroke-miterlimit="10" d="M760.005,473.009
		c13.84-1.177,30.543,57.38,44.413,57.207c27-0.336,51.761-20.414,78.438-17.8c21.152,2.072,25.032-41.345,45.138-35.831
		c25.67,7.011,59.895,17.898,85.229,12.019c17.609-4.087,37.711-26.6,56.027-26.204c8.389,0.181,16.795,2.603,25.166,4.211
		c13.223,2.541,30.975,11.772,44.862,11.927c27.133,0.302,37.628,66.424,64.918,69.752c5.021,0.612,23.482-76.847,26.984-72.456"/>
	<path opacity="0.2" fill="none" stroke="#28265B" stroke-miterlimit="10" d="M783.671,475.656
		c13.139-1.092,28.982,54.236,42.152,54.089c25.574-0.286,49.037-19.235,74.309-16.743c20.037,1.976,23.761-39.011,42.81-33.785
		c24.326,6.647,56.731,16.956,80.74,11.434c16.69-3.839,35.735-25.078,53.091-24.684c7.947,0.181,15.908,2.478,23.838,4.006
		c12.531,2.416,29.339,11.152,42.494,11.319c25.712,0.325,35.717,62.759,61.562,66.006c4.809,0.604,22.305-72.499,25.67-68.309"/>
	<path opacity="0.2" fill="none" stroke="#28265B" stroke-miterlimit="10" d="M807.338,478.304
		c12.437-1.007,27.42,51.094,39.89,50.972c24.15-0.236,46.313-18.057,70.181-15.688c18.921,1.879,22.49-36.678,40.48-31.739
		c22.982,6.284,53.57,16.013,76.253,10.848c15.771-3.592,33.759-23.551,50.153-23.161c7.504,0.179,15.022,2.352,22.51,3.801
		c11.838,2.292,27.701,10.531,40.127,10.71c24.291,0.351,33.806,59.1,58.206,62.261c4.598,0.596,21.128-68.15,24.356-64.16"/>
	<path opacity="0.2" fill="none" stroke="#28265B" stroke-miterlimit="10" d="M831.004,480.95
		c11.735-0.921,25.86,47.951,37.629,47.854c22.725-0.187,43.591-16.877,66.053-14.63c17.805,1.781,21.217-34.346,38.15-29.694
		c21.64,5.921,50.408,15.071,71.766,10.262c14.852-3.345,31.781-22.024,47.217-21.639c7.061,0.177,14.136,2.224,21.18,3.594
		c11.146,2.168,26.065,9.91,37.76,10.103c22.87,0.377,31.896,55.441,54.852,58.517c4.386,0.588,19.949-63.803,23.041-60.014"/>
	<path opacity="0.2" fill="none" stroke="#28265B" stroke-miterlimit="10" d="M854.671,483.598
		c11.033-0.836,24.299,44.808,35.366,44.736c21.302-0.138,40.867-15.698,61.925-13.573c16.688,1.684,19.945-32.013,35.821-27.648
		c20.297,5.558,47.246,14.13,67.277,9.677c13.934-3.098,29.801-20.262,44.28-20.118c6.62,0.065,13.249,2.098,19.853,3.389
		c10.454,2.043,24.428,9.289,35.391,9.494c21.45,0.4,29.985,51.781,51.495,54.771c4.176,0.58,18.772-59.454,21.729-55.864"/>
	<path opacity="0.2" fill="none" stroke="#28265B" stroke-miterlimit="10" d="M878.338,486.244
		c10.331-0.75,22.739,41.797,33.104,41.62c19.874-0.34,38.144-14.521,57.796-12.518c15.574,1.587,18.674-29.679,33.493-25.603
		c18.952,5.193,44.083,13.188,62.789,9.092c13.014-2.85,27.824-18.757,41.343-18.597c6.177,0.073,12.363,1.972,18.523,3.183
		c9.762,1.919,22.792,8.668,33.024,8.886c20.028,0.426,28.074,48.127,48.139,51.025c3.966,0.573,17.595-55.105,20.415-51.716"/>
	<path opacity="0.2" fill="none" stroke="#28265B" stroke-miterlimit="10" d="M902.004,488.892
		c9.63-0.664,21.178,38.656,30.843,38.502c18.45-0.294,35.421-13.341,53.668-11.46c14.457,1.49,17.403-27.347,31.164-23.559
		c17.609,4.832,40.922,12.246,58.301,8.507c12.096-2.603,25.848-17.254,38.406-17.075c5.734,0.081,11.478,1.846,17.196,2.978
		c9.068,1.795,21.152,8.186,30.655,8.277c18.613,0.181,26.163,44.478,44.783,47.28c3.755,0.565,16.417-50.757,19.101-47.568"/>
	<path opacity="0.2" fill="none" stroke="#28265B" stroke-miterlimit="10" d="M925.671,491.539
		c8.928-0.579,19.617,35.515,28.581,35.384c17.026-0.248,32.696-12.161,49.54-10.403c13.341,1.393,16.131-25.014,28.834-21.513
		c16.267,4.469,37.76,11.306,53.813,7.922c11.176-2.355,23.87-15.75,35.469-15.554c5.292,0.09,10.592,1.719,15.868,2.771
		c8.377,1.671,19.516,7.556,28.287,7.669c17.194,0.223,24.254,40.83,41.428,43.535c3.544,0.559,15.239-46.409,17.787-43.42"/>
	<path opacity="0.2" fill="none" stroke="#28265B" stroke-miterlimit="10" d="M949.337,494.186
		c8.227-0.493,18.056,32.375,26.319,32.268c15.603-0.203,29.974-10.983,45.412-9.348c12.226,1.296,14.859-22.681,26.505-19.467
		c14.923,4.105,34.599,10.363,49.325,7.336c10.258-2.108,21.894-14.246,32.533-14.032c4.849,0.098,9.704,1.594,14.539,2.566
		c7.685,1.546,17.878,6.925,25.92,7.061c15.773,0.266,22.343,37.188,38.071,39.79c3.334,0.552,14.062-42.061,16.474-39.271"/>
	<path opacity="0.2" fill="none" stroke="#28265B" stroke-miterlimit="10" d="M973.004,496.833
		c7.524-0.407,16.493,29.233,24.058,29.149c14.178-0.157,27.25-9.805,41.284-8.291c11.109,1.198,13.587-20.347,24.176-17.421
		c13.579,3.741,31.436,9.422,44.837,6.751c9.338-1.861,19.916-12.742,29.595-12.511c4.407,0.105,8.818,1.467,13.211,2.36
		c6.993,1.423,16.242,6.295,23.553,6.452c14.354,0.309,20.432,33.554,34.716,36.045c3.124,0.545,12.885-37.712,15.159-35.124"/>
	<path opacity="0.2" fill="none" stroke="#28265B" stroke-miterlimit="10" d="M996.671,499.479
		c6.822-0.321,14.932,25.95,21.796,26.032c12.753,0.153,24.525-8.625,37.154-7.233c9.994,1.102,12.316-18.015,21.848-15.376
		c12.236,3.378,28.274,8.48,40.35,6.166c8.419-1.613,17.939-11.238,26.658-10.989c3.964,0.113,7.932,1.34,11.882,2.153
		c6.301,1.298,14.605,5.666,21.185,5.845c12.935,0.352,18.521,29.924,31.359,32.3c2.915,0.539,11.708-33.363,13.847-30.976"/>
	<path opacity="0.2" fill="none" stroke="#28265B" stroke-miterlimit="10" d="M1020.338,502.127
		c6.12-0.236,13.369,22.806,19.533,22.915c11.328,0.2,21.803-7.447,33.027-6.178c8.878,1.005,11.044-15.682,19.518-13.33
		c10.893,3.015,25.112,7.538,35.861,5.58c7.5-1.366,15.963-9.734,23.722-9.468c3.521,0.121,7.045,1.215,10.554,1.949
		c5.607,1.175,12.968,5.036,18.817,5.236c11.515,0.395,16.609,26.301,28.003,28.554c2.705,0.535,10.53-29.016,12.533-26.827"/>
	<path opacity="0.2" fill="none" stroke="#28265B" stroke-miterlimit="10" d="M1044.004,504.773
		c5.419-0.15,11.81,19.662,17.272,19.798c9.903,0.245,19.078-6.268,28.898-5.12c7.763,0.907,9.772-13.35,17.189-11.285
		c9.549,2.651,21.95,6.598,31.373,4.995c6.581-1.119,13.986-8.231,20.784-7.946c3.078,0.129,6.159,1.087,9.226,1.742
		c4.917,1.05,11.332,4.407,16.449,4.629c10.095,0.437,14.697,22.69,24.647,24.809c2.496,0.531,9.354-24.667,11.219-22.68"/>
	<path opacity="0.2" fill="none" stroke="#28265B" stroke-miterlimit="10" d="M1067.671,507.421
		c4.717-0.065,10.247,16.518,15.01,16.681c8.479,0.29,16.355-5.089,24.771-4.064c6.646,0.81,8.5-11.016,14.859-9.239
		c8.206,2.288,18.788,5.654,26.885,4.409c5.662-0.871,12.01-6.728,17.848-6.425c2.636,0.137,5.273,0.962,7.897,1.537
		c4.224,0.927,9.694,3.777,14.082,4.021c8.674,0.48,12.783,19.094,21.292,21.063c2.285,0.529,8.175-20.319,9.904-18.531"/>
	<path opacity="0.2" fill="none" stroke="#28265B" stroke-miterlimit="10" d="M1091.338,510.068
		c4.015,0.02,8.685,13.371,12.748,13.562c7.052,0.332,13.633-3.911,20.643-3.008c5.53,0.713,7.229-8.683,12.53-7.193
		c6.862,1.925,15.626,4.714,22.397,3.824c4.743-0.623,10.031-5.225,14.91-4.903c2.193,0.145,4.387,0.836,6.569,1.331
		c3.532,0.802,8.058,3.147,11.713,3.411c7.256,0.524,10.868,15.515,17.937,17.319c2.077,0.53,6.998-15.971,8.592-14.384"/>
	<path opacity="0.2" fill="none" stroke="#28265B" stroke-miterlimit="10" d="M1115.004,512.715
		c3.313,0.106,7.124,10.225,10.486,10.445c5.627,0.369,10.91-2.731,16.515-1.951c4.414,0.615,5.957-6.35,10.202-5.148
		c5.519,1.562,12.463,3.773,17.908,3.239c3.826-0.376,8.055-3.721,11.974-3.381c1.75,0.151,3.501,0.709,5.241,1.125
		c2.839,0.679,6.42,2.519,9.346,2.804c5.835,0.568,8.948,11.957,14.58,13.573c1.866,0.536,5.82-11.622,7.277-10.235"/>
	<path opacity="0.2" fill="none" stroke="#28265B" stroke-miterlimit="10" d="M1138.671,515.362c2.611,0.191,5.56,7.073,8.225,7.327
		c4.2,0.399,8.186-1.554,12.386-0.895c3.299,0.518,4.686-4.017,7.872-3.103c4.176,1.198,9.305,2.833,13.422,2.654
		c2.906-0.126,6.076-2.216,9.037-1.86c1.307,0.159,2.613,0.584,3.912,0.92c2.147,0.555,4.784,1.89,6.978,2.195
		c4.416,0.614,7.02,8.43,11.225,9.828c1.654,0.55,4.644-7.273,5.964-6.087"/>
	<path opacity="0.2" fill="none" stroke="#28265B" stroke-miterlimit="10" d="M1162.337,518.009c1.91,0.277,3.999,3.915,5.963,4.21
		c2.775,0.416,5.463-0.374,8.259,0.163c2.184,0.42,3.413-1.684,5.543-1.058c2.833,0.835,6.142,1.896,8.933,2.068
		c1.988,0.123,4.101-0.722,6.101-0.339c0.863,0.163,1.728,0.46,2.584,0.715c1.453,0.433,3.146,1.263,4.61,1.587
		c2.994,0.663,5.075,4.941,7.868,6.083c1.434,0.586,3.466-2.926,4.649-1.939"/>
	<path opacity="0.2" fill="none" stroke="#28265B" stroke-miterlimit="10" d="M1186.004,520.656c10,3,22,6,30,12"/>
	<path opacity="0.2" fill="none" stroke="#28265B" stroke-miterlimit="10" d="M1162.553,519.872
		c4.263,1.476,11.374,1.336,15.971,1.951c6.154,0.824,10.073,1.608,16.194,3.78c2.264,0.803,4.454,2.09,6.694,2.613
		c4.046,0.945,10.233,1.034,13.741,2.407"/>
	<path opacity="0.2" fill="none" stroke="#28265B" stroke-miterlimit="10" d="M1139.102,519.088
		c5.577,2.065,16.713,0.794,22.731,1.173c9.182,0.578,13.787,1.229,22.991,4.344c3.195,1.091,6.263,3.137,9.5,3.561
		c5.328,0.698,15.196-0.644,19.979,0.426"/>
	<path opacity="0.2" fill="none" stroke="#28265B" stroke-miterlimit="10" d="M1115.651,518.303
		c6.893,2.657,22.062,0.745,29.492,0.394c12.201-0.577,17.506,0.837,29.787,4.909c4.131,1.375,8.07,4.201,12.306,4.509
		c6.606,0.479,20.16-2.323,26.219-1.556"/>
	<path opacity="0.2" fill="none" stroke="#28265B" stroke-miterlimit="10" d="M1092.201,517.52
		c8.206,3.246,27.412,0.195,36.252-0.387c15.206-1.001,21.225,0.444,36.583,5.474c5.065,1.659,9.879,5.274,15.112,5.456
		c7.886,0.273,25.122-4.002,32.458-3.536"/>
	<path opacity="0.2" fill="none" stroke="#28265B" stroke-miterlimit="10" d="M1068.75,516.734
		c9.521,3.837,32.759-0.369,43.013-1.164c18.214-1.412,24.943,0.051,43.379,6.037c6,1.943,11.698,6.039,17.918,6.404
		c9.153,0.538,30.086-5.681,38.696-5.518"/>
	<path opacity="0.2" fill="none" stroke="#28265B" stroke-miterlimit="10" d="M1045.298,515.95
		c10.836,4.428,38.066-1.55,49.774-1.943c21.288-0.717,28.661-0.341,50.174,6.603c6.936,2.227,13.502,7.111,20.726,7.352
		c10.445,0.347,35.048-7.36,44.934-7.5"/>
	<path opacity="0.2" fill="none" stroke="#28265B" stroke-miterlimit="10" d="M1021.847,515.166
		c12.151,5.019,43.402-2.146,56.535-2.723c24.311-1.066,32.38-0.733,56.971,7.166c7.869,2.511,15.308,8.521,23.53,8.3
		c11.734-0.316,40.012-9.039,51.173-9.48"/>
	<path opacity="0.2" fill="none" stroke="#28265B" stroke-miterlimit="10" d="M998.397,514.382
		c13.465,5.608,48.737-2.744,63.294-3.502c27.334-1.422,36.1-1.126,63.768,7.731c8.805,2.794,17.118,9.606,26.337,9.246
		c13.019-0.509,44.975-10.717,57.41-11.461"/>
	<path opacity="0.2" fill="none" stroke="#28265B" stroke-miterlimit="10" d="M974.946,513.598
		c14.78,6.199,54.072-3.344,70.055-4.281c30.354-1.779,39.817-1.518,70.563,8.296c9.739,3.077,18.929,10.694,29.143,10.194
		c14.304-0.7,49.938-12.396,63.649-13.442"/>
	<path opacity="0.2" fill="none" stroke="#28265B" stroke-miterlimit="10" d="M951.495,512.813
		c16.095,6.789,59.406-3.943,76.816-5.06c33.373-2.139,43.535-1.911,77.359,8.859c10.674,3.361,20.739,11.782,31.948,11.143
		c15.589-0.89,54.9-14.075,69.888-15.425"/>
	<path opacity="0.2" fill="none" stroke="#28265B" stroke-miterlimit="10" d="M928.043,512.029c17.41,7.38,64.74-4.545,83.577-5.84
		c36.393-2.501,47.254-2.303,84.155,9.425c11.608,3.646,22.551,12.871,34.755,12.09c16.875-1.08,59.863-15.754,76.126-17.405"/>
	<path opacity="0.2" fill="none" stroke="#28265B" stroke-miterlimit="10" d="M904.593,511.244
		c18.724,7.972,70.073-5.145,90.337-6.617c39.412-2.864,50.973-2.695,90.951,9.988c12.544,3.93,24.363,13.961,37.562,13.038
		c18.161-1.27,64.826-17.434,82.364-19.387"/>
	<path opacity="0.2" fill="none" stroke="#28265B" stroke-miterlimit="10" d="M881.142,510.46
		c20.039,8.562,75.406-5.746,97.098-7.396c42.432-3.229,54.692-3.088,97.747,10.553c13.479,4.214,26.176,15.05,40.368,13.985
		c19.447-1.459,69.789-19.111,88.603-21.367"/>
	<path opacity="0.2" fill="none" stroke="#28265B" stroke-miterlimit="10" d="M857.691,509.676
		c21.354,9.151,80.739-6.348,103.858-8.176c45.45-3.594,58.381-3.388,104.543,11.117c14.405,4.526,27.987,16.141,43.174,14.934
		c20.735-1.647,74.753-20.791,94.842-23.35"/>
	<path opacity="0.2" fill="none" stroke="#28265B" stroke-miterlimit="10" d="M834.241,508.892
		c22.668,9.742,86.071-6.95,110.618-8.955c48.469-3.959,62.097-3.771,111.34,11.682c15.338,4.812,29.8,17.229,45.979,15.881
		c22.021-1.836,79.715-22.469,101.08-25.33"/>
	<path opacity="0.2" fill="none" stroke="#28265B" stroke-miterlimit="10" d="M810.79,508.107
		c23.983,10.332,91.405-7.552,117.379-9.734c51.486-4.326,65.812-4.154,118.136,12.246c16.271,5.101,31.612,18.32,48.786,16.829
		c23.309-2.024,84.678-24.148,107.318-27.312"/>
	<path opacity="0.2" fill="none" stroke="#28265B" stroke-miterlimit="10" d="M787.338,507.323
		c25.298,10.923,96.738-8.154,124.14-10.514c54.504-4.693,69.527-4.533,124.933,12.812c17.205,5.386,33.424,19.411,51.592,17.776
		c24.596-2.213,89.641-25.828,113.556-29.293"/>
	<path opacity="0.2" fill="none" stroke="#28265B" stroke-miterlimit="10" d="M763.887,506.538
		c26.613,11.515,102.071-8.756,130.9-11.292c57.522-5.061,73.244-4.918,131.729,13.375c18.139,5.674,35.236,20.502,54.397,18.725
		c25.884-2.401,94.604-27.506,119.795-31.273"/>
	<path opacity="0.2" fill="none" stroke="#28265B" stroke-miterlimit="10" d="M740.436,505.754
		c27.928,12.104,107.405-9.357,137.661-12.07c60.539-5.428,76.959-5.3,138.524,13.939c19.073,5.96,37.049,21.593,57.204,19.672
		c27.171-2.589,99.567-29.186,126.033-33.256"/>
	<path opacity="0.2" fill="none" stroke="#28265B" stroke-miterlimit="10" d="M716.985,504.97
		c29.243,12.695,112.738-9.961,144.422-12.851c63.558-5.797,80.675-5.682,145.32,14.505c20.007,6.247,38.862,22.683,60.01,20.619
		c28.459-2.777,104.531-30.864,132.272-35.236"/>
	<path opacity="0.2" fill="none" stroke="#28265B" stroke-miterlimit="10" d="M693.535,504.186
		c30.557,13.285,118.069-10.562,151.183-13.629c66.574-6.165,84.39-6.065,152.115,15.068c20.941,6.534,40.675,23.774,62.816,21.567
		c29.746-2.965,109.493-32.544,138.511-37.218"/>
	<path opacity="0.2" fill="none" stroke="#28265B" stroke-miterlimit="10" d="M670.083,503.401
		c31.872,13.876,123.402-11.165,157.943-14.408c69.592-6.534,88.105-6.447,158.912,15.633c21.874,6.821,42.486,24.864,65.622,22.515
		c31.034-3.152,114.456-34.222,144.749-39.199"/>
	<path opacity="0.2" fill="none" stroke="#28265B" stroke-miterlimit="10" d="M646.632,502.617
		c33.187,14.466,128.734-11.769,164.703-15.188c72.61-6.902,91.821-6.829,165.709,16.197c22.809,7.108,44.301,25.956,68.429,23.463
		c32.321-3.34,119.419-35.9,150.986-41.181"/>
	<path opacity="0.2" fill="none" stroke="#28265B" stroke-miterlimit="10" d="M623.181,501.833
		c34.502,15.056,134.067-12.371,171.464-15.967c75.628-7.271,95.537-7.212,172.505,16.762c23.742,7.396,46.113,27.048,71.235,24.411
		c33.608-3.527,124.382-37.58,157.225-43.162"/>
	<path opacity="0.2" fill="none" stroke="#28265B" stroke-miterlimit="10" d="M599.731,501.049
		c35.815,15.646,139.399-12.974,178.225-16.746c78.645-7.641,99.252-7.594,179.301,17.326c24.676,7.682,47.925,28.139,74.04,25.358
		c34.896-3.715,129.346-39.259,163.464-45.144"/>
	<path opacity="0.2" fill="none" stroke="#28265B" stroke-miterlimit="10" d="M576.28,500.264
		c37.131,16.238,144.732-13.574,184.985-17.523c81.662-8.011,102.968-7.977,186.097,17.89c25.61,7.969,49.737,29.23,76.847,26.307
		c36.185-3.903,134.308-40.938,169.702-47.124"/>
	<path opacity="0.2" fill="none" stroke="#28265B" stroke-miterlimit="10" d="M552.829,499.479
		c38.445,16.829,150.064-14.178,191.746-18.303c84.679-8.38,106.683-8.359,192.893,18.454c26.544,8.256,51.551,30.321,79.652,27.254
		c37.473-4.091,139.271-42.616,175.941-49.105"/>
	<path opacity="0.2" fill="none" stroke="#28265B" stroke-miterlimit="10" d="M529.377,498.695
		c39.761,17.419,155.398-14.78,198.507-19.082c87.695-8.75,110.399-8.742,199.688,19.019c27.478,8.543,53.364,31.413,82.459,28.202
		c38.762-4.278,144.234-44.295,182.18-51.087"/>
	<path opacity="0.2" fill="none" stroke="#28265B" stroke-miterlimit="10" d="M505.926,497.911
		c41.076,18.009,160.73-15.385,205.268-19.861c90.713-9.119,114.114-9.125,206.484,19.583c28.412,8.83,55.178,32.505,85.266,29.15
		c40.049-4.465,149.197-45.975,188.418-53.068"/>
	<path opacity="0.2" fill="none" stroke="#28265B" stroke-miterlimit="10" d="M482.476,497.127
		c42.39,18.6,166.062-15.986,212.027-20.641c93.729-9.49,117.829-9.505,213.281,20.148c29.345,9.116,56.989,33.596,88.071,30.097
		c41.337-4.653,154.16-47.653,194.655-55.05"/>
	<path opacity="0.2" fill="none" stroke="#28265B" stroke-miterlimit="10" d="M459.025,496.343
		c43.705,19.189,171.395-16.59,218.788-21.42c96.747-9.86,121.545-9.89,220.077,20.712c30.279,9.403,58.802,34.688,90.877,31.046
		c42.625-4.841,159.124-49.332,200.895-57.031"/>
	<path opacity="0.2" fill="none" stroke="#28265B" stroke-miterlimit="10" d="M435.574,495.559
		c45.02,19.78,176.727-17.192,225.549-22.199c99.764-10.23,125.262-10.27,226.873,21.277c31.213,9.69,60.616,35.778,93.685,31.992
		c43.912-5.028,164.086-51.011,207.132-59.012"/>
	<path opacity="0.2" fill="none" stroke="#28265B" stroke-miterlimit="10" d="M412.124,494.773
		c46.334,20.371,182.058-17.794,232.309-22.977c102.781-10.6,128.977-10.654,233.67,21.84c32.147,9.978,62.428,36.872,96.489,32.941
		c45.201-5.216,169.049-52.689,213.371-60.993"/>
	<path opacity="0.2" fill="none" stroke="#28265B" stroke-miterlimit="10" d="M388.672,493.99
		c47.649,20.961,187.391-18.399,239.07-23.758c105.797-10.971,132.692-11.034,240.466,22.406
		c33.08,10.265,64.241,37.962,99.296,33.889c46.489-5.402,174.012-54.369,219.608-62.975"/>
	<path opacity="0.2" fill="none" stroke="#28265B" stroke-miterlimit="10" d="M365.221,493.205
		c48.964,21.553,192.723-19,245.83-24.535c108.814-11.341,136.407-11.418,247.262,22.97c34.014,10.552,66.054,39.054,102.102,34.836
		c47.777-5.59,178.976-56.048,225.848-64.956"/>
	<path opacity="0.2" fill="none" stroke="#28265B" stroke-miterlimit="10" d="M341.77,492.421
		c50.278,22.143,198.056-19.604,252.592-25.314c111.83-11.711,140.122-11.8,254.057,23.534
		c34.949,10.839,67.875,40.214,104.908,35.783c49.076-5.686,183.938-57.727,232.086-66.937"/>
	<path opacity="0.2" fill="none" stroke="#28265B" stroke-miterlimit="10" d="M318.319,491.637
		c51.593,22.733,203.388-20.207,259.351-26.094c114.849-12.081,143.839-12.182,260.854,24.099
		c35.884,11.126,69.688,41.301,107.715,36.731c50.363-5.88,188.9-59.405,238.324-68.918"/>
	<path opacity="0.2" fill="none" stroke="#28265B" stroke-miterlimit="10" d="M294.869,490.853
		c52.908,23.323,208.719-20.81,266.112-26.873c117.864-12.452,147.554-12.565,267.648,24.663
		c36.817,11.413,71.501,42.389,110.521,37.68c51.65-6.073,193.863-61.084,244.562-70.9"/>
	<path opacity="0.2" fill="none" stroke="#28265B" stroke-miterlimit="10" d="M271.417,490.068
		c54.223,23.914,214.052-21.413,272.874-27.652c120.881-12.822,151.269-12.946,274.445,25.228
		c37.75,11.699,73.312,43.476,113.326,38.627c52.938-6.267,198.827-62.764,250.802-72.881"/>
	<path opacity="0.2" fill="none" stroke="#28265B" stroke-miterlimit="10" d="M247.966,489.284
		c55.538,24.504,219.384-22.016,279.634-28.432c123.897-13.193,154.984-13.329,281.241,25.792
		c38.685,11.986,75.125,44.562,116.133,39.575c54.226-6.46,203.79-64.442,257.04-74.862"/>
	<path opacity="0.2" fill="none" stroke="#28265B" stroke-miterlimit="10" d="M224.515,488.5
		c56.853,25.095,224.717-22.618,286.395-29.21c126.915-13.563,158.7-13.712,288.038,26.355
		c39.617,12.272,76.938,45.649,118.938,40.522c55.513-6.652,208.753-66.121,263.278-76.844"/>
	<path opacity="0.2" fill="none" stroke="#28265B" stroke-miterlimit="10" d="M201.064,487.715
		c58.167,25.686,230.048-23.221,293.155-29.988c129.932-13.934,162.416-14.094,294.834,26.92
		c40.552,12.561,78.75,46.737,121.744,41.471c56.802-6.846,213.717-67.801,269.517-78.825"/>
	<path opacity="0.2" fill="none" stroke="#28265B" stroke-miterlimit="10" d="M177.614,486.931
		c59.482,26.276,235.38-23.823,299.915-30.768c132.948-14.306,166.131-14.475,301.63,27.485
		c41.485,12.847,80.562,47.823,124.551,42.418c58.089-7.04,218.68-69.479,275.755-80.807"/>
	<path opacity="0.2" fill="none" stroke="#28265B" stroke-miterlimit="10" d="M154.163,486.146
		c60.797,26.866,240.712-24.427,306.676-31.547c135.965-14.676,169.847-14.859,308.426,28.049
		c42.42,13.135,82.375,48.912,127.357,43.366c59.376-7.232,223.642-71.158,281.993-82.787"/>
	<path opacity="0.2" fill="none" stroke="#28265B" stroke-miterlimit="10" d="M130.711,485.362
		c62.111,27.457,246.045-25.03,313.437-32.326c138.981-15.046,173.562-15.24,315.222,28.614
		c43.354,13.421,84.188,49.998,130.164,44.313c60.663-7.427,228.604-72.837,288.231-84.77"/>
	<path opacity="0.2" fill="none" stroke="#28265B" stroke-miterlimit="10" d="M107.261,484.578
		c63.426,28.047,251.377-25.633,320.197-33.105c141.998-15.418,177.279-15.624,322.018,29.178
		c44.288,13.709,86.001,51.086,132.97,45.262c61.951-7.619,233.568-74.516,294.471-86.75"/>
	<path opacity="0.2" fill="none" stroke="#28265B" stroke-miterlimit="10" d="M83.81,483.794
		c64.741,28.638,256.709-26.235,326.958-33.884c145.014-15.788,180.993-16.005,328.814,29.742
		c45.221,13.995,87.812,52.173,135.775,46.209c63.238-7.812,238.531-76.195,300.709-88.731"/>
	<path opacity="0.2" fill="none" stroke="#28265B" stroke-miterlimit="10" d="M60.359,483.009
		c66.056,29.229,262.042-26.839,333.718-34.663c148.032-16.159,184.708-16.386,335.61,30.308
		c46.155,14.282,89.625,53.26,138.582,47.156c64.526-8.006,243.494-77.873,306.946-90.712"/>
	<path opacity="0.2" fill="none" stroke="#28265B" stroke-miterlimit="10" d="M36.908,482.225
		c67.37,29.819,267.374-27.441,340.479-35.441c151.049-16.529,188.425-16.769,342.407,30.871
		c47.088,14.568,91.438,54.347,141.388,48.104c65.813-8.199,248.456-79.553,313.185-92.694"/>
	<path opacity="0.2" fill="none" stroke="#28265B" stroke-miterlimit="10" d="M13.457,481.44
		c68.686,30.41,272.706-28.045,347.24-36.221c154.065-16.9,192.14-17.151,349.203,31.436c48.021,14.855,93.25,55.435,144.193,49.053
		c67.102-8.394,253.42-81.231,319.424-94.676"/>
	<path opacity="0.2" fill="none" stroke="#28265B" stroke-miterlimit="10" d="M-9.994,480.656c70,31,278-29,354-37
		c157-18,196-18,355.999,32c49,15,95.062,56.521,147,50c68.389-8.586,258.383-82.91,325.662-96.656"/>
</g>
</svg>
