<?xml version="1.0" encoding="utf-8"?>
<!-- Generator: Adobe Illustrator 16.0.0, SVG Export Plug-In . SVG Version: 6.00 Build 0)  -->
<!DOCTYPE svg PUBLIC "-//W3C//DTD SVG 1.1//EN" "http://www.w3.org/Graphics/SVG/1.1/DTD/svg11.dtd">
<svg version="1.1" id="Ebene_1" xmlns="http://www.w3.org/2000/svg" xmlns:xlink="http://www.w3.org/1999/xlink" x="0px" y="0px"
	 width="24px" height="24px" viewBox="0 0 24 24" enable-background="new 0 0 24 24" xml:space="preserve">
<g id="Ebene_2" display="none">
	<rect display="inline" fill="#070707" width="24" height="24"/>
</g>
<g id="Ebene_8" display="none">
</g>
<g id="Ebene_9">
	<path fill="#363556" d="M6.148,12c3.028-5.946,8.083-2.139,9.193-1.197c1.853-4.878-7.098-5.691-10.723-5.822
		C2.877,6.809,1.802,9.277,1.802,12c0,5.627,4.562,10.188,10.188,10.188c1.154,0,2.261-0.201,3.296-0.556
		C14.885,21.577,3.199,19.904,6.148,12z"/>
	<path fill="#C0092D" d="M17.784,11.919c-3.029,5.946-8.084,2.14-9.193,1.196c-1.853,4.879,7.099,5.691,10.724,5.822
		c1.74-1.828,2.815-4.295,2.815-7.02c0-5.627-4.562-10.188-10.188-10.188c-1.155,0-2.261,0.201-3.296,0.556
		C9.047,2.342,20.732,4.015,17.784,11.919z"/>
</g>
<g id="Layer_1" display="none">
	<path display="inline" fill="#FFFFFF" d="M21,0H3C1.3,0,0,1.3,0,3v18c0,1.7,1.3,3,3,3h18c1.7,0,3-1.3,3-3V3C24,1.3,22.7,0,21,0z
		 M11,5c1.1,0,2,0.9,2,2s-0.9,2-2,2S9,8.1,9,7S9.9,5,11,5z M21,18H3v-3l4-3l4,3l5-6l5,5V18z"/>
</g>
<g id="Ebene_7" display="none">
	<rect x="1.313" y="1.813" display="inline" fill="#FCFCFC" width="21.688" height="20.688"/>
</g>
<g id="Ebene_3" display="none">
	<circle display="inline" fill="#FFFFFF" cx="12" cy="12" r="2.188"/>
</g>
<g id="Ebene_4" display="none">
	<path display="inline" fill="none" stroke="#FFFFFF" stroke-miterlimit="10" d="M20.05,18.491
		c-2.128,1.758-7.387,0.263-11.747-3.339c-4.36-3.599-6.17-7.941-4.041-9.699C6.39,3.696,11.65,5.19,16.01,8.79
		C20.37,12.391,22.18,16.732,20.05,18.491z"/>
</g>
<g id="Ebene_5" display="none">
	<ellipse display="inline" fill="none" stroke="#FFFFFF" stroke-miterlimit="10" cx="12.157" cy="11.972" rx="5.45" ry="9.219"/>
</g>
<g id="Ebene_6" display="none">
	<path display="inline" fill="none" stroke="#FFFFFF" stroke-miterlimit="10" d="M20.05,5.453c2.13,1.758,0.32,6.1-4.04,9.699
		c-4.36,3.602-9.619,5.097-11.749,3.338c-2.127-1.758-0.318-6.1,4.042-9.7C12.663,5.19,17.923,3.696,20.05,5.453z"/>
</g>
</svg>
